Amaranth-Bold.ufo
<glyph name="exclam" format="1">
  <advance width="340"/>
  <unicode hex="0021"/>
  <outline>
    <contour>
      <point x="167" y="169" type="curve" smooth="yes"/>
      <point x="109" y="169"/>
      <point x="77" y="129"/>
      <point x="77" y="77" type="curve" smooth="yes"/>
      <point x="77" y="30"/>
      <point x="109" y="-10"/>
      <point x="165" y="-10" type="curve" smooth="yes"/>
      <point x="223" y="-10"/>
      <point x="254" y="30"/>
      <point x="254" y="81" type="curve" smooth="yes"/>
      <point x="254" y="132"/>
      <point x="223" y="169"/>
    </contour>
    <contour>
      <point x="97" y="220" type="line"/>
      <point x="242" y="220" type="line"/>
      <point x="271" y="677" type="line"/>
      <point x="97" y="677" type="line"/>
    </contour>
  </outline>
</glyph>
<glyph name="quotedbl" format="1">
  <advance width="410"/>
  <unicode hex="0022"/>
  <outline>
    <contour>
      <point x="42" y="677" type="line"/>
      <point x="53" y="420" type="line"/>
      <point x="164" y="420" type="line"/>
      <point x="175" y="677" type="line"/>
    </contour>
    <contour>
      <point x="235" y="677" type="line"/>
      <point x="246" y="420" type="line"/>
      <point x="357" y="420" type="line"/>
      <point x="368" y="677" type="line"/>
    </contour>
  </outline>
</glyph>
<glyph name="numbersign" format="1">
  <advance width="603"/>
  <unicode hex="0023"/>
  <outline>
    <contour>
      <point x="382" y="593" type="line"/>
      <point x="367" y="472" type="line"/>
      <point x="266" y="472" type="line"/>
      <point x="282" y="593" type="line"/>
      <point x="179" y="593" type="line"/>
      <point x="164" y="472" type="line"/>
      <point x="68" y="472" type="line"/>
      <point x="55" y="370" type="line"/>
      <point x="151" y="370" type="line"/>
      <point x="134" y="237" type="line"/>
      <point x="45" y="237" type="line"/>
      <point x="32" y="135" type="line"/>
      <point x="121" y="135" type="line"/>
      <point x="103" y="0" type="line"/>
      <point x="206" y="0" type="line"/>
      <point x="223" y="135" type="line"/>
      <point x="324" y="135" type="line"/>
      <point x="306" y="0" type="line"/>
      <point x="409" y="0" type="line"/>
      <point x="426" y="135" type="line"/>
      <point x="525" y="135" type="line"/>
      <point x="538" y="237" type="line"/>
      <point x="439" y="237" type="line"/>
      <point x="456" y="370" type="line"/>
      <point x="548" y="370" type="line"/>
      <point x="561" y="472" type="line"/>
      <point x="469" y="472" type="line"/>
      <point x="485" y="593" type="line"/>
    </contour>
    <contour>
      <point x="253" y="370" type="line"/>
      <point x="354" y="370" type="line"/>
      <point x="337" y="237" type="line"/>
      <point x="236" y="237" type="line"/>
    </contour>
  </outline>
</glyph>
<glyph name="dollar" format="1">
  <advance width="559"/>
  <unicode hex="0024"/>
  <outline>
    <contour>
      <point x="213" y="-83" type="line"/>
      <point x="340" y="-83" type="line"/>
      <point x="340" y="15" type="line"/>
      <point x="447" y="35"/>
      <point x="506" y="112"/>
      <point x="506" y="193" type="curve" smooth="yes"/>
      <point x="506" y="283"/>
      <point x="459" y="337"/>
      <point x="354" y="378" type="curve" smooth="yes"/>
      <point x="271" y="410"/>
      <point x="237" y="429"/>
      <point x="237" y="461" type="curve" smooth="yes"/>
      <point x="237" y="488"/>
      <point x="259" y="500"/>
      <point x="297" y="500" type="curve" smooth="yes"/>
      <point x="351" y="500"/>
      <point x="412" y="467"/>
      <point x="448" y="447" type="curve"/>
      <point x="504" y="555" type="line"/>
      <point x="470" y="578"/>
      <point x="410" y="604"/>
      <point x="340" y="614" type="curve"/>
      <point x="340" y="694" type="line"/>
      <point x="213" y="694" type="line"/>
      <point x="213" y="612" type="line"/>
      <point x="129" y="593"/>
      <point x="66" y="535"/>
      <point x="66" y="456" type="curve" smooth="yes"/>
      <point x="66" y="357"/>
      <point x="128" y="302"/>
      <point x="242" y="259" type="curve" smooth="yes"/>
      <point x="301" y="237"/>
      <point x="335" y="223"/>
      <point x="335" y="185" type="curve" smooth="yes"/>
      <point x="335" y="155"/>
      <point x="314" y="130"/>
      <point x="263" y="130" type="curve" smooth="yes"/>
      <point x="207" y="130"/>
      <point x="120" y="182"/>
      <point x="96" y="198" type="curve"/>
      <point x="42" y="81" type="line"/>
      <point x="78" y="59"/>
      <point x="137" y="28"/>
      <point x="213" y="16" type="curve"/>
    </contour>
  </outline>
</glyph>
<glyph name="percent" format="1">
  <advance width="944"/>
  <unicode hex="0025"/>
  <outline>
    <contour>
      <point x="210" y="595" type="curve" smooth="yes"/>
      <point x="96" y="595"/>
      <point x="32" y="511"/>
      <point x="32" y="408" type="curve" smooth="yes"/>
      <point x="32" y="302"/>
      <point x="89" y="229"/>
      <point x="204" y="229" type="curve" smooth="yes"/>
      <point x="319" y="229"/>
      <point x="382" y="313"/>
      <point x="382" y="416" type="curve" smooth="yes"/>
      <point x="382" y="523"/>
      <point x="326" y="595"/>
    </contour>
    <contour>
      <point x="204" y="512" type="curve" smooth="yes"/>
      <point x="238" y="512"/>
      <point x="244" y="472"/>
      <point x="244" y="410" type="curve" smooth="yes"/>
      <point x="244" y="350"/>
      <point x="238" y="312"/>
      <point x="210" y="312" type="curve" smooth="yes"/>
      <point x="177" y="312"/>
      <point x="170" y="354"/>
      <point x="170" y="416" type="curve" smooth="yes"/>
      <point x="170" y="476"/>
      <point x="176" y="512"/>
    </contour>
    <contour>
      <point x="266" y="-8" type="line"/>
      <point x="398" y="-8" type="line"/>
      <point x="680" y="594" type="line"/>
      <point x="547" y="594" type="line"/>
    </contour>
    <contour>
      <point x="740" y="358" type="curve" smooth="yes"/>
      <point x="626" y="358"/>
      <point x="562" y="274"/>
      <point x="562" y="171" type="curve" smooth="yes"/>
      <point x="562" y="65"/>
      <point x="619" y="-8"/>
      <point x="734" y="-8" type="curve" smooth="yes"/>
      <point x="849" y="-8"/>
      <point x="912" y="76"/>
      <point x="912" y="179" type="curve" smooth="yes"/>
      <point x="912" y="286"/>
      <point x="856" y="358"/>
    </contour>
    <contour>
      <point x="734" y="275" type="curve" smooth="yes"/>
      <point x="768" y="275"/>
      <point x="774" y="235"/>
      <point x="774" y="173" type="curve" smooth="yes"/>
      <point x="774" y="113"/>
      <point x="769" y="75"/>
      <point x="740" y="75" type="curve" smooth="yes"/>
      <point x="706" y="75"/>
      <point x="700" y="117"/>
      <point x="700" y="179" type="curve" smooth="yes"/>
      <point x="700" y="239"/>
      <point x="706" y="275"/>
    </contour>
  </outline>
</glyph>
<glyph name="parenleft" format="1">
  <advance width="385"/>
  <unicode hex="0028"/>
  <outline>
    <contour>
      <point x="62" y="269" type="curve" smooth="yes"/>
      <point x="62" y="7"/>
      <point x="200" y="-140"/>
      <point x="273" y="-191" type="curve"/>
      <point x="356" y="-99" type="line"/>
      <point x="298" y="-40"/>
      <point x="221" y="77"/>
      <point x="221" y="268" type="curve" smooth="yes"/>
      <point x="221" y="457"/>
      <point x="299" y="575"/>
      <point x="356" y="634" type="curve"/>
      <point x="273" y="726" type="line"/>
      <point x="200" y="675"/>
      <point x="62" y="527"/>
    </contour>
  </outline>
</glyph>
<glyph name="parenright" format="1">
  <advance width="385"/>
  <unicode hex="0029"/>
  <outline>
    <contour>
      <point x="330" y="269" type="curve" smooth="yes"/>
      <point x="330" y="527"/>
      <point x="192" y="675"/>
      <point x="119" y="726" type="curve"/>
      <point x="36" y="634" type="line"/>
      <point x="93" y="575"/>
      <point x="172" y="457"/>
      <point x="172" y="268" type="curve" smooth="yes"/>
      <point x="172" y="77"/>
      <point x="94" y="-40"/>
      <point x="36" y="-99" type="curve"/>
      <point x="119" y="-191" type="line"/>
      <point x="192" y="-140"/>
      <point x="330" y="7"/>
    </contour>
  </outline>
</glyph>
<glyph name="asterisk" format="1">
  <advance width="477"/>
  <unicode hex="002A"/>
  <outline>
    <contour>
      <point x="172" y="677" type="line"/>
      <point x="184" y="570" type="line"/>
      <point x="85" y="616" type="line"/>
      <point x="42" y="491" type="line"/>
      <point x="152" y="467" type="line"/>
      <point x="76" y="385" type="line"/>
      <point x="185" y="306" type="line"/>
      <point x="238" y="400" type="line"/>
      <point x="292" y="306" type="line"/>
      <point x="401" y="385" type="line"/>
      <point x="325" y="467" type="line"/>
      <point x="435" y="491" type="line"/>
      <point x="392" y="616" type="line"/>
      <point x="292" y="570" type="line"/>
      <point x="305" y="677" type="line"/>
    </contour>
  </outline>
</glyph>
<glyph name="plus" format="1">
  <advance width="505"/>
  <unicode hex="002B"/>
  <outline>
    <contour>
      <point x="52" y="242" type="line"/>
      <point x="191" y="242" type="line"/>
      <point x="191" y="96" type="line"/>
      <point x="313" y="96" type="line"/>
      <point x="313" y="242" type="line"/>
      <point x="453" y="242" type="line"/>
      <point x="453" y="358" type="line"/>
      <point x="313" y="358" type="line"/>
      <point x="313" y="498" type="line"/>
      <point x="191" y="498" type="line"/>
      <point x="191" y="358" type="line"/>
      <point x="52" y="358" type="line"/>
    </contour>
  </outline>
</glyph>
<glyph name="comma" format="1">
  <advance width="299"/>
  <unicode hex="002C"/>
  <outline>
    <contour>
      <point x="73" y="117" type="curve"/>
      <point x="76" y="95"/>
      <point x="93" y="58"/>
      <point x="93" y="17" type="curve" smooth="yes"/>
      <point x="93" y="-20"/>
      <point x="80" y="-61"/>
      <point x="32" y="-96" type="curve"/>
      <point x="90" y="-175" type="line"/>
      <point x="199" y="-120"/>
      <point x="246" y="-35"/>
      <point x="246" y="50" type="curve" smooth="yes"/>
      <point x="246" y="99"/>
      <point x="225" y="141"/>
      <point x="163" y="141" type="curve" smooth="yes"/>
      <point x="101" y="141"/>
      <point x="75" y="119"/>
    </contour>
  </outline>
</glyph>
<glyph name="period" format="1">
  <advance width="282"/>
  <unicode hex="002E"/>
  <outline>
    <contour>
      <point x="142" y="169" type="curve" smooth="yes"/>
      <point x="84" y="169"/>
      <point x="52" y="129"/>
      <point x="52" y="77" type="curve" smooth="yes"/>
      <point x="52" y="30"/>
      <point x="84" y="-10"/>
      <point x="140" y="-10" type="curve" smooth="yes"/>
      <point x="198" y="-10"/>
      <point x="229" y="30"/>
      <point x="229" y="81" type="curve" smooth="yes"/>
      <point x="229" y="132"/>
      <point x="198" y="169"/>
    </contour>
  </outline>
</glyph>
<glyph name="slash" format="1">
  <advance width="447"/>
  <unicode hex="002F"/>
  <outline>
    <contour>
      <point x="-18" y="-126" type="line"/>
      <point x="147" y="-126" type="line"/>
      <point x="465" y="729" type="line"/>
      <point x="300" y="729" type="line"/>
    </contour>
  </outline>
</glyph>
<glyph name="zero" format="1">
  <advance width="594"/>
  <unicode hex="0030"/>
  <outline>
    <contour>
      <point x="304" y="645" type="curve" smooth="yes"/>
      <point x="131" y="645"/>
      <point x="37" y="509"/>
      <point x="37" y="309" type="curve" smooth="yes"/>
      <point x="37" y="106"/>
      <point x="126" y="-9"/>
      <point x="291" y="-9" type="curve" smooth="yes"/>
      <point x="464" y="-9"/>
      <point x="556" y="126"/>
      <point x="556" y="325" type="curve" smooth="yes"/>
      <point x="556" y="526"/>
      <point x="469" y="645"/>
    </contour>
    <contour>
      <point x="291" y="534" type="curve" smooth="yes"/>
      <point x="368" y="534"/>
      <point x="385" y="446"/>
      <point x="385" y="313" type="curve" smooth="yes"/>
      <point x="385" y="173"/>
      <point x="363" y="101"/>
      <point x="303" y="101" type="curve" smooth="yes"/>
      <point x="225" y="101"/>
      <point x="207" y="187"/>
      <point x="207" y="320" type="curve" smooth="yes"/>
      <point x="207" y="462"/>
      <point x="230" y="534"/>
    </contour>
  </outline>
</glyph>
<glyph name="one" format="1">
  <advance width="421"/>
  <unicode hex="0031"/>
  <outline>
    <contour>
      <point x="207" y="640" type="line"/>
      <point x="142" y="571"/>
      <point x="68" y="536"/>
      <point x="0" y="507" type="curve"/>
      <point x="55" y="405" type="line"/>
      <point x="97" y="419"/>
      <point x="137" y="442"/>
      <point x="171" y="468" type="curve"/>
      <point x="171" y="0" type="line"/>
      <point x="329" y="0" type="line"/>
      <point x="329" y="640" type="line"/>
    </contour>
  </outline>
</glyph>
<glyph name="three" format="1">
  <advance width="511"/>
  <unicode hex="0033"/>
  <outline>
    <contour>
      <point x="254" y="645" type="curve" smooth="yes"/>
      <point x="181" y="645"/>
      <point x="107" y="619"/>
      <point x="39" y="585" type="curve"/>
      <point x="97" y="467" type="line"/>
      <point x="149" y="494"/>
      <point x="187" y="513"/>
      <point x="233" y="513" type="curve" smooth="yes"/>
      <point x="260" y="513"/>
      <point x="275" y="498"/>
      <point x="275" y="475" type="curve" smooth="yes"/>
      <point x="275" y="426"/>
      <point x="189" y="399"/>
      <point x="100" y="373" type="curve"/>
      <point x="146" y="261" type="line"/>
      <point x="152" y="262"/>
      <point x="203" y="275"/>
      <point x="233" y="275" type="curve" smooth="yes"/>
      <point x="269" y="275"/>
      <point x="305" y="249"/>
      <point x="305" y="208" type="curve" smooth="yes"/>
      <point x="305" y="153"/>
      <point x="265" y="122"/>
      <point x="223" y="122" type="curve" smooth="yes"/>
      <point x="178" y="122"/>
      <point x="117" y="151"/>
      <point x="79" y="170" type="curve"/>
      <point x="27" y="49" type="line"/>
      <point x="88" y="21"/>
      <point x="179" y="-9"/>
      <point x="239" y="-9" type="curve" smooth="yes"/>
      <point x="414" y="-9"/>
      <point x="474" y="101"/>
      <point x="474" y="202" type="curve" smooth="yes"/>
      <point x="474" y="271"/>
      <point x="433" y="336"/>
      <point x="356" y="358" type="curve"/>
      <point x="406" y="383"/>
      <point x="445" y="429"/>
      <point x="445" y="495" type="curve" smooth="yes"/>
      <point x="445" y="592"/>
      <point x="366" y="645"/>
    </contour>
  </outline>
</glyph>
<glyph name="four" format="1">
  <advance width="528"/>
  <unicode hex="0034"/>
  <outline>
    <contour>
      <point x="271" y="0" type="line"/>
      <point x="429" y="0" type="line"/>
      <point x="429" y="152" type="line"/>
      <point x="497" y="152" type="line"/>
      <point x="520" y="283" type="line"/>
      <point x="429" y="283" type="line"/>
      <point x="429" y="450" type="line"/>
      <point x="271" y="423" type="line"/>
      <point x="271" y="283" type="line"/>
      <point x="188" y="283" type="line"/>
      <point x="337" y="640" type="line"/>
      <point x="179" y="640" type="line"/>
      <point x="12" y="240" type="line"/>
      <point x="12" y="152" type="line"/>
      <point x="271" y="152" type="line"/>
    </contour>
  </outline>
</glyph>
<glyph name="six" format="1">
  <advance width="547"/>
  <unicode hex="0036"/>
  <outline>
    <contour>
      <point x="470" y="615" type="line"/>
      <point x="435" y="632"/>
      <point x="376" y="644"/>
      <point x="327" y="644" type="curve" smooth="yes"/>
      <point x="133" y="644"/>
      <point x="37" y="489"/>
      <point x="37" y="318" type="curve" smooth="yes"/>
      <point x="37" y="129"/>
      <point x="112" y="-9"/>
      <point x="279" y="-9" type="curve" smooth="yes"/>
      <point x="428" y="-9"/>
      <point x="520" y="82"/>
      <point x="520" y="205" type="curve" smooth="yes"/>
      <point x="520" y="347"/>
      <point x="436" y="413"/>
      <point x="327" y="413" type="curve" smooth="yes"/>
      <point x="276" y="413"/>
      <point x="237" y="391"/>
      <point x="209" y="369" type="curve"/>
      <point x="217" y="461"/>
      <point x="247" y="524"/>
      <point x="322" y="524" type="curve" smooth="yes"/>
      <point x="356" y="524"/>
      <point x="396" y="514"/>
      <point x="428" y="504" type="curve"/>
    </contour>
    <contour>
      <point x="285" y="304" type="curve" smooth="yes"/>
      <point x="330" y="304"/>
      <point x="358" y="274"/>
      <point x="358" y="204" type="curve" smooth="yes"/>
      <point x="358" y="149"/>
      <point x="339" y="99"/>
      <point x="289" y="99" type="curve" smooth="yes"/>
      <point x="239" y="99"/>
      <point x="213" y="147"/>
      <point x="208" y="269" type="curve"/>
      <point x="223" y="283"/>
      <point x="254" y="304"/>
    </contour>
  </outline>
</glyph>
<glyph name="seven" format="1">
  <advance width="469"/>
  <unicode hex="0037"/>
  <outline>
    <contour>
      <point x="442" y="637" type="line"/>
      <point x="1" y="637" type="line"/>
      <point x="25" y="502" type="line"/>
      <point x="258" y="502" type="line"/>
      <point x="79" y="0" type="line"/>
      <point x="247" y="0" type="line"/>
      <point x="442" y="547" type="line"/>
    </contour>
  </outline>
</glyph>
<glyph name="eight" format="1">
  <advance width="555"/>
  <unicode hex="0038"/>
  <outline>
    <contour>
      <point x="277" y="-9" type="curve" smooth="yes"/>
      <point x="162" y="-9"/>
      <point x="42" y="46"/>
      <point x="42" y="167" type="curve" smooth="yes"/>
      <point x="42" y="236"/>
      <point x="85" y="291"/>
      <point x="166" y="340" type="curve"/>
      <point x="107" y="370"/>
      <point x="62" y="417"/>
      <point x="62" y="483" type="curve" smooth="yes"/>
      <point x="62" y="596"/>
      <point x="184" y="645"/>
      <point x="282" y="645" type="curve" smooth="yes"/>
      <point x="383" y="645"/>
      <point x="488" y="595"/>
      <point x="488" y="487" type="curve" smooth="yes"/>
      <point x="488" y="426"/>
      <point x="451" y="381"/>
      <point x="390" y="345" type="curve"/>
      <point x="472" y="301"/>
      <point x="512" y="238"/>
      <point x="512" y="173" type="curve" smooth="yes"/>
      <point x="512" y="50"/>
      <point x="397" y="-9"/>
    </contour>
    <contour>
      <point x="210" y="161" type="curve" smooth="yes"/>
      <point x="210" y="120"/>
      <point x="240" y="95"/>
      <point x="282" y="95" type="curve" smooth="yes"/>
      <point x="319" y="95"/>
      <point x="342" y="124"/>
      <point x="342" y="159" type="curve" smooth="yes"/>
      <point x="342" y="197"/>
      <point x="314" y="234"/>
      <point x="278" y="264" type="curve"/>
      <point x="233" y="234"/>
      <point x="210" y="198"/>
    </contour>
    <contour>
      <point x="326" y="492" type="curve" smooth="yes"/>
      <point x="326" y="529"/>
      <point x="299" y="541"/>
      <point x="276" y="541" type="curve" smooth="yes"/>
      <point x="254" y="541"/>
      <point x="223" y="530"/>
      <point x="223" y="492" type="curve" smooth="yes"/>
      <point x="223" y="459"/>
      <point x="244" y="429"/>
      <point x="278" y="408" type="curve"/>
      <point x="310" y="430"/>
      <point x="326" y="459"/>
    </contour>
  </outline>
</glyph>
<glyph name="nine" format="1">
  <advance width="546"/>
  <unicode hex="0039"/>
  <outline>
    <contour>
      <point x="77" y="20" type="line"/>
      <point x="112" y="4"/>
      <point x="171" y="-9"/>
      <point x="220" y="-9" type="curve" smooth="yes"/>
      <point x="414" y="-9"/>
      <point x="510" y="149"/>
      <point x="510" y="320" type="curve" smooth="yes"/>
      <point x="510" y="509"/>
      <point x="435" y="644"/>
      <point x="268" y="644" type="curve" smooth="yes"/>
      <point x="120" y="644"/>
      <point x="27" y="556"/>
      <point x="27" y="433" type="curve" smooth="yes"/>
      <point x="27" y="291"/>
      <point x="111" y="225"/>
      <point x="220" y="225" type="curve" smooth="yes"/>
      <point x="271" y="225"/>
      <point x="311" y="247"/>
      <point x="338" y="268" type="curve"/>
      <point x="330" y="176"/>
      <point x="300" y="111"/>
      <point x="226" y="111" type="curve" smooth="yes"/>
      <point x="191" y="111"/>
      <point x="151" y="121"/>
      <point x="119" y="132" type="curve"/>
    </contour>
    <contour>
      <point x="262" y="334" type="curve" smooth="yes"/>
      <point x="217" y="334"/>
      <point x="189" y="365"/>
      <point x="189" y="434" type="curve" smooth="yes"/>
      <point x="189" y="489"/>
      <point x="209" y="536"/>
      <point x="258" y="536" type="curve" smooth="yes"/>
      <point x="308" y="536"/>
      <point x="334" y="491"/>
      <point x="339" y="368" type="curve"/>
      <point x="323" y="355"/>
      <point x="293" y="334"/>
    </contour>
  </outline>
</glyph>
<glyph name="semicolon" format="1">
  <advance width="309"/>
  <unicode hex="003B"/>
  <outline>
    <contour>
      <point x="148" y="512" type="curve" smooth="yes"/>
      <point x="90" y="512"/>
      <point x="59" y="471"/>
      <point x="59" y="420" type="curve" smooth="yes"/>
      <point x="59" y="372"/>
      <point x="90" y="332"/>
      <point x="146" y="332" type="curve" smooth="yes"/>
      <point x="204" y="332"/>
      <point x="236" y="372"/>
      <point x="236" y="424" type="curve" smooth="yes"/>
      <point x="236" y="475"/>
      <point x="204" y="512"/>
    </contour>
    <contour>
      <point x="71" y="117" type="curve"/>
      <point x="74" y="95"/>
      <point x="91" y="58"/>
      <point x="91" y="17" type="curve" smooth="yes"/>
      <point x="91" y="-20"/>
      <point x="78" y="-61"/>
      <point x="30" y="-96" type="curve"/>
      <point x="88" y="-175" type="line"/>
      <point x="197" y="-120"/>
      <point x="244" y="-35"/>
      <point x="244" y="50" type="curve" smooth="yes"/>
      <point x="244" y="99"/>
      <point x="223" y="141"/>
      <point x="161" y="141" type="curve" smooth="yes"/>
      <point x="99" y="141"/>
      <point x="73" y="119"/>
    </contour>
  </outline>
</glyph>
<glyph name="less" format="1">
  <advance width="448"/>
  <unicode hex="003C"/>
  <outline>
    <contour>
      <point x="416" y="197" type="line"/>
      <point x="263" y="269" type="line" smooth="yes"/>
      <point x="236" y="281"/>
      <point x="202" y="294"/>
      <point x="183" y="301" type="curve"/>
      <point x="191" y="303"/>
      <point x="231" y="318"/>
      <point x="263" y="333" type="curve" smooth="yes"/>
      <point x="414" y="402" type="line"/>
      <point x="361" y="525" type="line"/>
      <point x="22" y="360" type="line"/>
      <point x="22" y="241" type="line"/>
      <point x="363" y="75" type="line"/>
    </contour>
  </outline>
</glyph>
<glyph name="question" format="1">
  <advance width="451"/>
  <unicode hex="003F"/>
  <outline>
    <contour>
      <point x="232" y="687" type="curve" smooth="yes"/>
      <point x="144" y="687"/>
      <point x="86" y="663"/>
      <point x="29" y="637" type="curve"/>
      <point x="78" y="537" type="line"/>
      <point x="136" y="564"/>
      <point x="159" y="575"/>
      <point x="193" y="575" type="curve" smooth="yes"/>
      <point x="226" y="575"/>
      <point x="245" y="548"/>
      <point x="245" y="523" type="curve" smooth="yes"/>
      <point x="245" y="450"/>
      <point x="110" y="364"/>
      <point x="110" y="231" type="curve"/>
      <point x="233" y="198" type="line"/>
      <point x="250" y="247"/>
      <point x="277" y="283"/>
      <point x="314" y="329" type="curve" smooth="yes"/>
      <point x="363" y="389"/>
      <point x="422" y="461"/>
      <point x="422" y="538" type="curve" smooth="yes"/>
      <point x="422" y="636"/>
      <point x="349" y="687"/>
    </contour>
    <contour>
      <point x="174" y="169" type="curve" smooth="yes"/>
      <point x="116" y="169"/>
      <point x="85" y="129"/>
      <point x="85" y="77" type="curve" smooth="yes"/>
      <point x="85" y="30"/>
      <point x="116" y="-10"/>
      <point x="172" y="-10" type="curve" smooth="yes"/>
      <point x="230" y="-10"/>
      <point x="261" y="30"/>
      <point x="261" y="81" type="curve" smooth="yes"/>
      <point x="261" y="132"/>
      <point x="230" y="169"/>
    </contour>
  </outline>
</glyph>
<glyph name="at" format="1">
  <advance width="957"/>
  <unicode hex="0040"/>
  <outline>
    <contour>
      <point x="670" y="449" type="line"/>
      <point x="663" y="449"/>
      <point x="561" y="475"/>
      <point x="483" y="475" type="curve" smooth="yes"/>
      <point x="343" y="475"/>
      <point x="248" y="371"/>
      <point x="248" y="226" type="curve" smooth="yes"/>
      <point x="248" y="86"/>
      <point x="305" y="-6"/>
      <point x="428" y="-6" type="curve" smooth="yes"/>
      <point x="495" y="-6"/>
      <point x="536" y="26"/>
      <point x="561" y="95" type="curve"/>
      <point x="589" y="20"/>
      <point x="646" y="-6"/>
      <point x="713" y="-6" type="curve" smooth="yes"/>
      <point x="825" y="-6"/>
      <point x="914" y="126"/>
      <point x="914" y="284" type="curve" smooth="yes"/>
      <point x="914" y="530"/>
      <point x="742" y="665"/>
      <point x="527" y="665" type="curve" smooth="yes"/>
      <point x="263" y="665"/>
      <point x="44" y="501"/>
      <point x="44" y="199" type="curve" smooth="yes"/>
      <point x="44" y="-104"/>
      <point x="238" y="-195"/>
      <point x="424" y="-195" type="curve" smooth="yes"/>
      <point x="532" y="-195"/>
      <point x="645" y="-151"/>
      <point x="663" y="-141" type="curve"/>
      <point x="626" y="-44" type="line"/>
      <point x="606" y="-52"/>
      <point x="510" y="-82"/>
      <point x="431" y="-82" type="curve" smooth="yes"/>
      <point x="230" y="-82"/>
      <point x="163" y="51"/>
      <point x="163" y="203" type="curve" smooth="yes"/>
      <point x="163" y="438"/>
      <point x="322" y="552"/>
      <point x="516" y="552" type="curve" smooth="yes"/>
      <point x="680" y="552"/>
      <point x="795" y="460"/>
      <point x="795" y="278" type="curve" smooth="yes"/>
      <point x="795" y="203"/>
      <point x="763" y="108"/>
      <point x="715" y="108" type="curve" smooth="yes"/>
      <point x="685" y="108"/>
      <point x="670" y="141"/>
      <point x="670" y="217" type="curve" smooth="yes"/>
    </contour>
    <contour>
      <point x="452" y="103" type="curve" smooth="yes"/>
      <point x="410" y="103"/>
      <point x="406" y="166"/>
      <point x="406" y="237" type="curve" smooth="yes"/>
      <point x="406" y="312"/>
      <point x="425" y="366"/>
      <point x="481" y="366" type="curve" smooth="yes"/>
      <point x="496" y="366"/>
      <point x="513" y="360"/>
      <point x="521" y="358" type="curve"/>
      <point x="521" y="250" type="line" smooth="yes"/>
      <point x="521" y="171"/>
      <point x="491" y="103"/>
    </contour>
  </outline>
</glyph>
<glyph name="B" format="1">
  <advance width="574"/>
  <unicode hex="0042"/>
  <outline>
    <contour>
      <point x="62" y="0" type="line"/>
      <point x="91" y="0"/>
      <point x="221" y="-1"/>
      <point x="259" y="-1" type="curve" smooth="yes"/>
      <point x="450" y="-1"/>
      <point x="546" y="64"/>
      <point x="546" y="189" type="curve" smooth="yes"/>
      <point x="546" y="266"/>
      <point x="498" y="324"/>
      <point x="398" y="353" type="curve"/>
      <point x="482" y="381"/>
      <point x="526" y="435"/>
      <point x="526" y="503" type="curve" smooth="yes"/>
      <point x="526" y="611"/>
      <point x="438" y="679"/>
      <point x="270" y="679" type="curve" smooth="yes"/>
      <point x="228" y="679"/>
      <point x="86" y="677"/>
      <point x="62" y="677" type="curve"/>
    </contour>
    <contour>
      <point x="227" y="288" type="line"/>
      <point x="236" y="289"/>
      <point x="253" y="290"/>
      <point x="271" y="290" type="curve" smooth="yes"/>
      <point x="347" y="290"/>
      <point x="372" y="243"/>
      <point x="372" y="193" type="curve" smooth="yes"/>
      <point x="372" y="127"/>
      <point x="330" y="108"/>
      <point x="276" y="108" type="curve" smooth="yes"/>
      <point x="227" y="108" type="line"/>
    </contour>
    <contour>
      <point x="227" y="569" type="line"/>
      <point x="235" y="570"/>
      <point x="252" y="570"/>
      <point x="269" y="570" type="curve" smooth="yes"/>
      <point x="328" y="570"/>
      <point x="353" y="536"/>
      <point x="353" y="481" type="curve" smooth="yes"/>
      <point x="353" y="414"/>
      <point x="314" y="393"/>
      <point x="273" y="393" type="curve" smooth="yes"/>
      <point x="227" y="393" type="line"/>
    </contour>
  </outline>
</glyph>
<glyph name="C" format="1">
  <advance width="549"/>
  <unicode hex="0043"/>
  <outline>
    <contour>
      <point x="316" y="0" type="move" name="bottom"/>
    </contour>
    <contour>
      <point x="537" y="603" type="line"/>
      <point x="499" y="646"/>
      <point x="448" y="686"/>
      <point x="341" y="686" type="curve" smooth="yes"/>
      <point x="137" y="686"/>
      <point x="39" y="537"/>
      <point x="39" y="330" type="curve" smooth="yes"/>
      <point x="39" y="116"/>
      <point x="130" y="-6"/>
      <point x="335" y="-6" type="curve" smooth="yes"/>
      <point x="416" y="-6"/>
      <point x="480" y="10"/>
      <point x="521" y="27" type="curve"/>
      <point x="485" y="139" type="line"/>
      <point x="448" y="124"/>
      <point x="402" y="111"/>
      <point x="355" y="111" type="curve" smooth="yes"/>
      <point x="249" y="111"/>
      <point x="217" y="205"/>
      <point x="217" y="341" type="curve" smooth="yes"/>
      <point x="217" y="483"/>
      <point x="255" y="569"/>
      <point x="341" y="569" type="curve" smooth="yes"/>
      <point x="376" y="569"/>
      <point x="410" y="557"/>
      <point x="447" y="512" type="curve"/>
    </contour>
  </outline>
</glyph>
<glyph name="G" format="1">
  <advance width="611"/>
  <unicode hex="0047"/>
  <outline>
    <contour>
      <point x="372" y="-223" type="line"/>
      <point x="469" y="-182"/>
      <point x="568" y="-131"/>
      <point x="568" y="31" type="curve" smooth="yes"/>
      <point x="568" y="350" type="line"/>
      <point x="410" y="350" type="line"/>
      <point x="410" y="275" type="line" smooth="yes"/>
      <point x="410" y="199"/>
      <point x="366" y="111"/>
      <point x="313" y="111" type="curve" smooth="yes"/>
      <point x="245" y="111"/>
      <point x="213" y="201"/>
      <point x="213" y="340" type="curve" smooth="yes"/>
      <point x="213" y="483"/>
      <point x="251" y="569"/>
      <point x="345" y="569" type="curve" smooth="yes"/>
      <point x="388" y="569"/>
      <point x="434" y="540"/>
      <point x="472" y="503" type="curve"/>
      <point x="549" y="597" type="line"/>
      <point x="501" y="655"/>
      <point x="423" y="686"/>
      <point x="345" y="686" type="curve" smooth="yes"/>
      <point x="132" y="686"/>
      <point x="35" y="536"/>
      <point x="35" y="330" type="curve" smooth="yes"/>
      <point x="35" y="120"/>
      <point x="121" y="-7"/>
      <point x="278" y="-7" type="curve" smooth="yes"/>
      <point x="347" y="-7"/>
      <point x="399" y="22"/>
      <point x="426" y="72" type="curve"/>
      <point x="426" y="65" type="line" smooth="yes"/>
      <point x="426" y="-24"/>
      <point x="397" y="-72"/>
      <point x="312" y="-119" type="curve"/>
    </contour>
  </outline>
</glyph>
<glyph name="H" format="1">
  <advance width="688"/>
  <unicode hex="0048"/>
  <outline>
    <contour>
      <point x="461" y="0" type="line"/>
      <point x="625" y="0" type="line"/>
      <point x="625" y="677" type="line"/>
      <point x="461" y="677" type="line"/>
      <point x="461" y="412" type="line"/>
      <point x="227" y="412" type="line"/>
      <point x="227" y="677" type="line"/>
      <point x="62" y="677" type="line"/>
      <point x="62" y="0" type="line"/>
      <point x="227" y="0" type="line"/>
      <point x="227" y="290" type="line"/>
      <point x="461" y="290" type="line"/>
    </contour>
  </outline>
</glyph>
<glyph name="I" format="1">
  <advance width="289"/>
  <unicode hex="0049"/>
  <outline>
    <contour>
      <point x="131" y="677" type="move" name="topUC"/>
    </contour>
    <contour>
      <point x="62" y="0" type="line"/>
      <point x="227" y="0" type="line"/>
      <point x="227" y="677" type="line"/>
      <point x="62" y="677" type="line"/>
    </contour>
  </outline>
</glyph>
<glyph name="J" format="1">
  <advance width="285"/>
  <unicode hex="004A"/>
  <outline>
    <contour>
      <point x="222" y="677" type="line"/>
      <point x="58" y="677" type="line"/>
      <point x="58" y="41" type="line" smooth="yes"/>
      <point x="58" y="-7"/>
      <point x="58" y="-59"/>
      <point x="-43" y="-112" type="curve"/>
      <point x="24" y="-223" type="line"/>
      <point x="136" y="-169"/>
      <point x="222" y="-107"/>
      <point x="222" y="43" type="curve" smooth="yes"/>
    </contour>
  </outline>
</glyph>
<glyph name="K" format="1">
  <advance width="638"/>
  <unicode hex="004B"/>
  <outline>
    <contour>
      <point x="62" y="0" type="line"/>
      <point x="227" y="0" type="line"/>
      <point x="227" y="677" type="line"/>
      <point x="62" y="677" type="line"/>
    </contour>
    <contour>
      <point x="590" y="677" type="curve"/>
      <point x="426" y="677" type="line"/>
      <point x="394" y="533"/>
      <point x="356" y="440"/>
      <point x="238" y="383" type="curve"/>
      <point x="238" y="371" type="line"/>
      <point x="468" y="0" type="line"/>
      <point x="652" y="0" type="line"/>
      <point x="418" y="356" type="line"/>
      <point x="490" y="412"/>
      <point x="552" y="488"/>
    </contour>
  </outline>
</glyph>
<glyph name="M" format="1">
  <advance width="860"/>
  <unicode hex="004D"/>
  <outline>
    <contour>
      <point x="576" y="201" type="line" smooth="yes"/>
      <point x="590" y="233"/>
      <point x="626" y="323"/>
      <point x="646" y="380" type="curve"/>
      <point x="645" y="313"/>
      <point x="645" y="186"/>
      <point x="647" y="136" type="curve" smooth="yes"/>
      <point x="653" y="0" type="line"/>
      <point x="808" y="0" type="line"/>
      <point x="768" y="677" type="line"/>
      <point x="629" y="677" type="line"/>
      <point x="473" y="287" type="line" smooth="yes"/>
      <point x="463" y="262"/>
      <point x="446" y="215"/>
      <point x="431" y="166" type="curve"/>
      <point x="416" y="216"/>
      <point x="399" y="263"/>
      <point x="390" y="287" type="curve" smooth="yes"/>
      <point x="234" y="677" type="line"/>
      <point x="92" y="677" type="line"/>
      <point x="52" y="0" type="line"/>
      <point x="204" y="0" type="line"/>
      <point x="209" y="136" type="line" smooth="yes"/>
      <point x="211" y="185"/>
      <point x="211" y="312"/>
      <point x="211" y="380" type="curve"/>
      <point x="234" y="317"/>
      <point x="274" y="214"/>
      <point x="283" y="192" type="curve" smooth="yes"/>
      <point x="366" y="0" type="line"/>
      <point x="491" y="0" type="line"/>
    </contour>
  </outline>
</glyph>
<glyph name="N" format="1">
  <advance width="689"/>
  <unicode hex="004E"/>
  <outline>
    <contour>
      <point x="465" y="418" type="line" smooth="yes"/>
      <point x="466" y="376"/>
      <point x="471" y="299"/>
      <point x="473" y="257" type="curve"/>
      <point x="454" y="288"/>
      <point x="416" y="351"/>
      <point x="392" y="387" type="curve" smooth="yes"/>
      <point x="197" y="677" type="line"/>
      <point x="62" y="677" type="line"/>
      <point x="62" y="0" type="line"/>
      <point x="227" y="0" type="line"/>
      <point x="224" y="260" type="line" smooth="yes"/>
      <point x="224" y="298"/>
      <point x="218" y="377"/>
      <point x="215" y="418" type="curve"/>
      <point x="233" y="389"/>
      <point x="276" y="317"/>
      <point x="293" y="292" type="curve" smooth="yes"/>
      <point x="486" y="0" type="line"/>
      <point x="627" y="0" type="line"/>
      <point x="627" y="677" type="line"/>
      <point x="462" y="677" type="line"/>
    </contour>
  </outline>
</glyph>
<glyph name="O" format="1">
  <advance width="693"/>
  <unicode hex="004F"/>
  <outline>
    <contour>
      <point x="333" y="677" type="move" name="topUC"/>
    </contour>
    <contour>
      <point x="353" y="686" type="curve" smooth="yes"/>
      <point x="139" y="686"/>
      <point x="37" y="539"/>
      <point x="37" y="330" type="curve" smooth="yes"/>
      <point x="37" y="118"/>
      <point x="129" y="-6"/>
      <point x="340" y="-6" type="curve" smooth="yes"/>
      <point x="553" y="-6"/>
      <point x="655" y="136"/>
      <point x="655" y="344" type="curve" smooth="yes"/>
      <point x="655" y="555"/>
      <point x="563" y="686"/>
    </contour>
    <contour>
      <point x="339" y="569" type="curve" smooth="yes"/>
      <point x="447" y="569"/>
      <point x="477" y="469"/>
      <point x="477" y="334" type="curve" smooth="yes"/>
      <point x="477" y="192"/>
      <point x="440" y="111"/>
      <point x="354" y="111" type="curve" smooth="yes"/>
      <point x="245" y="111"/>
      <point x="215" y="206"/>
      <point x="215" y="341" type="curve" smooth="yes"/>
      <point x="215" y="484"/>
      <point x="252" y="569"/>
    </contour>
  </outline>
</glyph>
<glyph name="T" format="1">
  <advance width="507"/>
  <unicode hex="0054"/>
  <outline>
    <contour>
      <point x="2" y="677" type="line"/>
      <point x="2" y="556" type="line"/>
      <point x="163" y="556" type="line"/>
      <point x="163" y="0" type="line"/>
      <point x="328" y="0" type="line"/>
      <point x="328" y="556" type="line"/>
      <point x="484" y="556" type="line"/>
      <point x="505" y="677" type="line"/>
    </contour>
  </outline>
</glyph>
<glyph name="U" format="1">
  <advance width="668"/>
  <unicode hex="0055"/>
  <outline>
    <contour>
      <point x="319" y="677" type="move" name="topUC"/>
    </contour>
    <contour>
      <point x="52" y="677" type="line"/>
      <point x="52" y="265" type="line" smooth="yes"/>
      <point x="52" y="123"/>
      <point x="123" y="-6"/>
      <point x="327" y="-6" type="curve" smooth="yes"/>
      <point x="540" y="-6"/>
      <point x="616" y="122"/>
      <point x="616" y="265" type="curve" smooth="yes"/>
      <point x="616" y="677" type="line"/>
      <point x="451" y="677" type="line"/>
      <point x="451" y="274" type="line" smooth="yes"/>
      <point x="451" y="173"/>
      <point x="411" y="121"/>
      <point x="340" y="121" type="curve" smooth="yes"/>
      <point x="270" y="121"/>
      <point x="216" y="158"/>
      <point x="216" y="274" type="curve" smooth="yes"/>
      <point x="216" y="677" type="line"/>
    </contour>
  </outline>
</glyph>
<glyph name="V" format="1">
  <advance width="642"/>
  <unicode hex="0056"/>
  <outline>
    <contour>
      <point x="644" y="677" type="line"/>
      <point x="476" y="677" type="line"/>
      <point x="384" y="406" type="line" smooth="yes"/>
      <point x="355" y="323"/>
      <point x="335" y="252"/>
      <point x="322" y="201" type="curve"/>
      <point x="309" y="252"/>
      <point x="289" y="326"/>
      <point x="262" y="407" type="curve" smooth="yes"/>
      <point x="172" y="677" type="line"/>
      <point x="-2" y="677" type="line"/>
      <point x="251" y="0" type="line"/>
      <point x="391" y="0" type="line"/>
    </contour>
  </outline>
</glyph>
<glyph name="Z" format="1">
  <advance width="548"/>
  <unicode hex="005A"/>
  <outline>
    <contour>
      <point x="520" y="0" type="line"/>
      <point x="520" y="137" type="line"/>
      <point x="305" y="137" type="line" smooth="yes"/>
      <point x="281" y="137"/>
      <point x="258" y="136"/>
      <point x="237" y="135" type="curve"/>
      <point x="507" y="564" type="line"/>
      <point x="507" y="677" type="line"/>
      <point x="33" y="677" type="line"/>
      <point x="58" y="540" type="line"/>
      <point x="231" y="540" type="line" smooth="yes"/>
      <point x="257" y="540"/>
      <point x="285" y="541"/>
      <point x="310" y="542" type="curve"/>
      <point x="36" y="112" type="line"/>
      <point x="36" y="0" type="line"/>
    </contour>
  </outline>
</glyph>
<glyph name="bracketleft" format="1">
  <advance width="401"/>
  <unicode hex="005B"/>
  <outline>
    <contour>
      <point x="72" y="720" type="line"/>
      <point x="72" y="-186" type="line"/>
      <point x="360" y="-186" type="line"/>
      <point x="360" y="-81" type="line"/>
      <point x="233" y="-81" type="line"/>
      <point x="233" y="615" type="line"/>
      <point x="360" y="615" type="line"/>
      <point x="360" y="720" type="line"/>
    </contour>
  </outline>
</glyph>
<glyph name="backslash" format="1">
  <advance width="447"/>
  <unicode hex="005C"/>
  <outline>
    <contour>
      <point x="147" y="729" type="line"/>
      <point x="-18" y="729" type="line"/>
      <point x="300" y="-126" type="line"/>
      <point x="465" y="-126" type="line"/>
    </contour>
  </outline>
</glyph>
<glyph name="asciicircum" format="1">
  <advance width="563"/>
  <unicode hex="005E"/>
  <outline>
    <contour>
      <point x="520" y="310" type="line"/>
      <point x="341" y="677" type="line"/>
      <point x="221" y="677" type="line"/>
      <point x="42" y="310" type="line"/>
      <point x="179" y="285" type="line"/>
      <point x="249" y="438" type="line" smooth="yes"/>
      <point x="261" y="464"/>
      <point x="274" y="498"/>
      <point x="281" y="518" type="curve"/>
      <point x="288" y="498"/>
      <point x="301" y="463"/>
      <point x="313" y="438" type="curve" smooth="yes"/>
      <point x="383" y="286" type="line"/>
    </contour>
  </outline>
</glyph>
<glyph name="a" format="1">
  <advance width="544"/>
  <unicode hex="0061"/>
  <outline>
    <contour>
      <point x="268" y="506" type="move" name="top"/>
    </contour>
    <contour>
      <point x="477" y="480" type="line"/>
      <point x="475" y="480"/>
      <point x="361" y="509"/>
      <point x="278" y="509" type="curve" smooth="yes"/>
      <point x="129" y="509"/>
      <point x="27" y="396"/>
      <point x="27" y="243" type="curve" smooth="yes"/>
      <point x="27" y="93"/>
      <point x="89" y="-6"/>
      <point x="220" y="-6" type="curve" smooth="yes"/>
      <point x="292" y="-6"/>
      <point x="335" y="30"/>
      <point x="357" y="92" type="curve"/>
      <point x="369" y="26"/>
      <point x="405" y="-8"/>
      <point x="405" y="-8" type="curve"/>
      <point x="532" y="32" type="line"/>
      <point x="532" y="32"/>
      <point x="477" y="83"/>
      <point x="477" y="241" type="curve" smooth="yes"/>
    </contour>
    <contour>
      <point x="246" y="110" type="curve" smooth="yes"/>
      <point x="198" y="110"/>
      <point x="195" y="179"/>
      <point x="195" y="253" type="curve" smooth="yes"/>
      <point x="195" y="334"/>
      <point x="213" y="393"/>
      <point x="278" y="393" type="curve" smooth="yes"/>
      <point x="290" y="393"/>
      <point x="310" y="389"/>
      <point x="319" y="385" type="curve"/>
      <point x="319" y="269" type="line" smooth="yes"/>
      <point x="319" y="185"/>
      <point x="287" y="110"/>
    </contour>
  </outline>
</glyph>
<glyph name="b" format="1">
  <advance width="534"/>
  <unicode hex="0062"/>
  <outline>
    <contour>
      <point x="57" y="23" type="line"/>
      <point x="68" y="19"/>
      <point x="173" y="-6"/>
      <point x="256" y="-6" type="curve" smooth="yes"/>
      <point x="405" y="-6"/>
      <point x="507" y="107"/>
      <point x="507" y="259" type="curve" smooth="yes"/>
      <point x="507" y="410"/>
      <point x="445" y="509"/>
      <point x="319" y="509" type="curve" smooth="yes"/>
      <point x="274" y="509"/>
      <point x="240" y="491"/>
      <point x="215" y="459" type="curve"/>
      <point x="215" y="725" type="line"/>
      <point x="57" y="698" type="line"/>
    </contour>
    <contour>
      <point x="288" y="393" type="curve" smooth="yes"/>
      <point x="336" y="393"/>
      <point x="339" y="324"/>
      <point x="339" y="249" type="curve" smooth="yes"/>
      <point x="339" y="169"/>
      <point x="321" y="110"/>
      <point x="256" y="110" type="curve" smooth="yes"/>
      <point x="243" y="110"/>
      <point x="223" y="115"/>
      <point x="215" y="117" type="curve"/>
      <point x="215" y="224" type="line" smooth="yes"/>
      <point x="215" y="313"/>
      <point x="245" y="393"/>
    </contour>
  </outline>
</glyph>
<glyph name="c" format="1">
  <advance width="419"/>
  <unicode hex="0063"/>
  <outline>
    <contour>
      <point x="250" y="0" type="move" name="bottom"/>
    </contour>
    <contour>
      <point x="416" y="441" type="line"/>
      <point x="385" y="483"/>
      <point x="335" y="512"/>
      <point x="270" y="512" type="curve" smooth="yes"/>
      <point x="131" y="512"/>
      <point x="27" y="417"/>
      <point x="27" y="237" type="curve" smooth="yes"/>
      <point x="27" y="90"/>
      <point x="95" y="-9"/>
      <point x="258" y="-9" type="curve" smooth="yes"/>
      <point x="347" y="-9"/>
      <point x="406" y="24"/>
      <point x="407" y="25" type="curve"/>
      <point x="378" y="130" type="line"/>
      <point x="375" y="129"/>
      <point x="326" y="110"/>
      <point x="294" y="110" type="curve" smooth="yes"/>
      <point x="251" y="110"/>
      <point x="195" y="128"/>
      <point x="195" y="254" type="curve" smooth="yes"/>
      <point x="195" y="381"/>
      <point x="247" y="394"/>
      <point x="280" y="394" type="curve" smooth="yes"/>
      <point x="307" y="394"/>
      <point x="322" y="379"/>
      <point x="338" y="360" type="curve"/>
    </contour>
  </outline>
</glyph>
<glyph name="d" format="1">
  <advance width="544"/>
  <unicode hex="0064"/>
  <outline>
    <contour>
      <point x="532" y="32" type="line"/>
      <point x="531" y="33"/>
      <point x="477" y="83"/>
      <point x="477" y="241" type="curve" smooth="yes"/>
      <point x="477" y="698" type="line"/>
      <point x="319" y="724" type="line"/>
      <point x="319" y="506" type="line"/>
      <point x="305" y="507"/>
      <point x="290" y="509"/>
      <point x="278" y="509" type="curve" smooth="yes"/>
      <point x="129" y="509"/>
      <point x="27" y="396"/>
      <point x="27" y="243" type="curve" smooth="yes"/>
      <point x="27" y="93"/>
      <point x="89" y="-6"/>
      <point x="220" y="-6" type="curve" smooth="yes"/>
      <point x="292" y="-6"/>
      <point x="335" y="30"/>
      <point x="357" y="92" type="curve"/>
      <point x="369" y="27"/>
      <point x="404" y="-7"/>
      <point x="405" y="-8" type="curve"/>
    </contour>
    <contour>
      <point x="246" y="110" type="curve" smooth="yes"/>
      <point x="198" y="110"/>
      <point x="195" y="179"/>
      <point x="195" y="253" type="curve" smooth="yes"/>
      <point x="195" y="334"/>
      <point x="213" y="393"/>
      <point x="278" y="393" type="curve" smooth="yes"/>
      <point x="290" y="393"/>
      <point x="310" y="389"/>
      <point x="319" y="385" type="curve"/>
      <point x="319" y="269" type="line" smooth="yes"/>
      <point x="319" y="185"/>
      <point x="287" y="110"/>
    </contour>
  </outline>
</glyph>
<glyph name="f" format="1">
  <advance width="369"/>
  <unicode hex="0066"/>
  <outline>
    <contour>
      <point x="402" y="659" type="line"/>
      <point x="370" y="695"/>
      <point x="331" y="722"/>
      <point x="258" y="722" type="curve" smooth="yes"/>
      <point x="154" y="722"/>
      <point x="80" y="665"/>
      <point x="80" y="567" type="curve" smooth="yes"/>
      <point x="80" y="543"/>
      <point x="85" y="522"/>
      <point x="93" y="502" type="curve"/>
      <point x="16" y="502" type="line"/>
      <point x="16" y="382" type="line"/>
      <point x="93" y="382" type="line"/>
      <point x="93" y="14" type="line" smooth="yes"/>
      <point x="93" y="-36"/>
      <point x="55" y="-73"/>
      <point x="-8" y="-106" type="curve"/>
      <point x="64" y="-223" type="line"/>
      <point x="148" y="-183"/>
      <point x="251" y="-136"/>
      <point x="251" y="17" type="curve" smooth="yes"/>
      <point x="251" y="382" type="line"/>
      <point x="340" y="382" type="line"/>
      <point x="360" y="502" type="line"/>
      <point x="232" y="502" type="line"/>
      <point x="229" y="516"/>
      <point x="228" y="530"/>
      <point x="228" y="544" type="curve" smooth="yes"/>
      <point x="228" y="582"/>
      <point x="253" y="604"/>
      <point x="283" y="604" type="curve" smooth="yes"/>
      <point x="303" y="604"/>
      <point x="319" y="589"/>
      <point x="326" y="579" type="curve"/>
    </contour>
  </outline>
</glyph>
<glyph name="g" format="1">
  <advance width="539"/>
  <unicode hex="0067"/>
  <outline>
    <contour>
      <point x="98" y="-173" type="line"/>
      <point x="160" y="-199"/>
      <point x="230" y="-215"/>
      <point x="291" y="-215" type="curve" smooth="yes"/>
      <point x="426" y="-215"/>
      <point x="512" y="-136"/>
      <point x="512" y="3" type="curve" smooth="yes"/>
      <point x="512" y="89"/>
      <point x="475" y="146"/>
      <point x="476" y="231" type="curve" smooth="yes"/>
      <point x="480" y="480" type="line"/>
      <point x="461" y="485"/>
      <point x="358" y="509"/>
      <point x="278" y="509" type="curve" smooth="yes"/>
      <point x="129" y="509"/>
      <point x="27" y="396"/>
      <point x="27" y="243" type="curve" smooth="yes"/>
      <point x="27" y="93"/>
      <point x="89" y="-6"/>
      <point x="220" y="-6" type="curve" smooth="yes"/>
      <point x="290" y="-6"/>
      <point x="333" y="29"/>
      <point x="356" y="88" type="curve"/>
      <point x="365" y="65"/>
      <point x="370" y="36"/>
      <point x="370" y="6" type="curve" smooth="yes"/>
      <point x="370" y="-51"/>
      <point x="334" y="-83"/>
      <point x="281" y="-83" type="curve" smooth="yes"/>
      <point x="232" y="-83"/>
      <point x="193" y="-71"/>
      <point x="135" y="-51" type="curve"/>
    </contour>
    <contour>
      <point x="246" y="110" type="curve" smooth="yes"/>
      <point x="198" y="110"/>
      <point x="195" y="179"/>
      <point x="195" y="253" type="curve" smooth="yes"/>
      <point x="195" y="334"/>
      <point x="213" y="393"/>
      <point x="278" y="393" type="curve" smooth="yes"/>
      <point x="290" y="393"/>
      <point x="310" y="389"/>
      <point x="319" y="385" type="curve"/>
      <point x="319" y="276" type="line" smooth="yes"/>
      <point x="319" y="189"/>
      <point x="288" y="110"/>
    </contour>
  </outline>
</glyph>
<glyph name="h" format="1">
  <advance width="542"/>
  <unicode hex="0068"/>
  <outline>
    <contour>
      <point x="215" y="725" type="line"/>
      <point x="57" y="698" type="line"/>
      <point x="57" y="0" type="line"/>
      <point x="215" y="0" type="line"/>
      <point x="215" y="264" type="line" smooth="yes"/>
      <point x="215" y="342"/>
      <point x="256" y="390"/>
      <point x="291" y="390" type="curve" smooth="yes"/>
      <point x="322" y="390"/>
      <point x="331" y="359"/>
      <point x="331" y="312" type="curve" smooth="yes"/>
      <point x="331" y="0" type="line"/>
      <point x="490" y="0" type="line"/>
      <point x="490" y="335" type="line" smooth="yes"/>
      <point x="490" y="441"/>
      <point x="450" y="509"/>
      <point x="346" y="509" type="curve" smooth="yes"/>
      <point x="297" y="509"/>
      <point x="250" y="495"/>
      <point x="215" y="464" type="curve"/>
    </contour>
  </outline>
</glyph>
<glyph name="i" format="1">
  <advance width="285"/>
  <unicode hex="0069"/>
  <outline>
    <contour>
      <point x="179" y="-4" type="curve" smooth="yes"/>
      <point x="233" y="-4"/>
      <point x="276" y="18"/>
      <point x="278" y="20" type="curve"/>
      <point x="264" y="119" type="line"/>
      <point x="261" y="118"/>
      <point x="248" y="115"/>
      <point x="238" y="115" type="curve" smooth="yes"/>
      <point x="219" y="115"/>
      <point x="210" y="124"/>
      <point x="210" y="154" type="curve" smooth="yes"/>
      <point x="210" y="502" type="line"/>
      <point x="52" y="502" type="line"/>
      <point x="52" y="109" type="line" smooth="yes"/>
      <point x="52" y="38"/>
      <point x="104" y="-4"/>
    </contour>
    <contour>
      <point x="133" y="743" type="curve" smooth="yes"/>
      <point x="73" y="743"/>
      <point x="42" y="703"/>
      <point x="42" y="650" type="curve" smooth="yes"/>
      <point x="42" y="603"/>
      <point x="73" y="564"/>
      <point x="129" y="564" type="curve" smooth="yes"/>
      <point x="188" y="564"/>
      <point x="219" y="603"/>
      <point x="219" y="655" type="curve" smooth="yes"/>
      <point x="219" y="705"/>
      <point x="188" y="743"/>
    </contour>
  </outline>
</glyph>
<glyph name="j" format="1">
  <advance width="273"/>
  <unicode hex="006A"/>
  <outline>
    <contour>
      <point x="60" y="41" type="line" smooth="yes"/>
      <point x="60" y="-18"/>
      <point x="46" y="-68"/>
      <point x="-40" y="-115" type="curve"/>
      <point x="26" y="-223" type="line"/>
      <point x="137" y="-169"/>
      <point x="217" y="-106"/>
      <point x="217" y="43" type="curve" smooth="yes"/>
      <point x="217" y="502" type="line"/>
      <point x="60" y="502" type="line"/>
    </contour>
    <contour>
      <point x="140" y="743" type="curve" smooth="yes"/>
      <point x="81" y="743"/>
      <point x="50" y="703"/>
      <point x="50" y="650" type="curve" smooth="yes"/>
      <point x="50" y="603"/>
      <point x="81" y="564"/>
      <point x="137" y="564" type="curve" smooth="yes"/>
      <point x="196" y="564"/>
      <point x="227" y="603"/>
      <point x="227" y="655" type="curve" smooth="yes"/>
      <point x="227" y="705"/>
      <point x="196" y="743"/>
    </contour>
  </outline>
</glyph>
<glyph name="l" format="1">
  <advance width="321"/>
  <unicode hex="006C"/>
  <outline>
    <contour>
      <point x="184" y="-4" type="curve" smooth="yes"/>
      <point x="242" y="-4"/>
      <point x="294" y="13"/>
      <point x="314" y="22" type="curve"/>
      <point x="299" y="121" type="line"/>
      <point x="284" y="118"/>
      <point x="264" y="115"/>
      <point x="250" y="115" type="curve" smooth="yes"/>
      <point x="220" y="115"/>
      <point x="210" y="126"/>
      <point x="210" y="158" type="curve" smooth="yes"/>
      <point x="210" y="725" type="line"/>
      <point x="52" y="698" type="line"/>
      <point x="52" y="124" type="line" smooth="yes"/>
      <point x="52" y="53"/>
      <point x="92" y="-4"/>
    </contour>
  </outline>
</glyph>
<glyph name="m" format="1">
  <advance width="798"/>
  <unicode hex="006D"/>
  <outline>
    <contour>
      <point x="745" y="0" type="line"/>
      <point x="745" y="335" type="line" smooth="yes"/>
      <point x="745" y="440"/>
      <point x="712" y="509"/>
      <point x="609" y="509" type="curve" smooth="yes"/>
      <point x="551" y="509"/>
      <point x="502" y="489"/>
      <point x="467" y="441" type="curve"/>
      <point x="445" y="485"/>
      <point x="409" y="509"/>
      <point x="351" y="509" type="curve" smooth="yes"/>
      <point x="282" y="509"/>
      <point x="222" y="480"/>
      <point x="190" y="418" type="curve"/>
      <point x="175" y="477"/>
      <point x="144" y="509"/>
      <point x="144" y="509" type="curve"/>
      <point x="17" y="469" type="line"/>
      <point x="17" y="469"/>
      <point x="72" y="418"/>
      <point x="72" y="260" type="curve" smooth="yes"/>
      <point x="72" y="0" type="line"/>
      <point x="230" y="0" type="line"/>
      <point x="230" y="259" type="line" smooth="yes"/>
      <point x="230" y="339"/>
      <point x="263" y="390"/>
      <point x="296" y="390" type="curve" smooth="yes"/>
      <point x="325" y="390"/>
      <point x="329" y="359"/>
      <point x="329" y="312" type="curve" smooth="yes"/>
      <point x="329" y="0" type="line"/>
      <point x="488" y="0" type="line"/>
      <point x="488" y="264" type="line" smooth="yes"/>
      <point x="488" y="340"/>
      <point x="522" y="390"/>
      <point x="554" y="390" type="curve" smooth="yes"/>
      <point x="582" y="390"/>
      <point x="587" y="359"/>
      <point x="587" y="312" type="curve" smooth="yes"/>
      <point x="587" y="0" type="line"/>
    </contour>
  </outline>
</glyph>
<glyph name="p" format="1">
  <advance width="549"/>
  <unicode hex="0070"/>
  <outline>
    <contour>
      <point x="230" y="-194" type="line"/>
      <point x="230" y="0" type="line"/>
      <point x="246" y="-4"/>
      <point x="265" y="-6"/>
      <point x="282" y="-6" type="curve" smooth="yes"/>
      <point x="419" y="-6"/>
      <point x="522" y="110"/>
      <point x="522" y="259" type="curve" smooth="yes"/>
      <point x="522" y="410"/>
      <point x="460" y="509"/>
      <point x="334" y="509" type="curve" smooth="yes"/>
      <point x="263" y="509"/>
      <point x="219" y="470"/>
      <point x="194" y="395" type="curve"/>
      <point x="185" y="470"/>
      <point x="144" y="509"/>
      <point x="144" y="509" type="curve"/>
      <point x="17" y="469" type="line"/>
      <point x="17" y="469"/>
      <point x="72" y="418"/>
      <point x="72" y="260" type="curve" smooth="yes"/>
      <point x="72" y="-221" type="line"/>
    </contour>
    <contour>
      <point x="303" y="393" type="curve" smooth="yes"/>
      <point x="351" y="393"/>
      <point x="354" y="324"/>
      <point x="354" y="249" type="curve" smooth="yes"/>
      <point x="354" y="169"/>
      <point x="336" y="110"/>
      <point x="271" y="110" type="curve" smooth="yes"/>
      <point x="258" y="110"/>
      <point x="239" y="115"/>
      <point x="230" y="117" type="curve"/>
      <point x="230" y="242" type="line" smooth="yes"/>
      <point x="230" y="322"/>
      <point x="262" y="393"/>
    </contour>
  </outline>
</glyph>
<glyph name="s" format="1">
  <advance width="423"/>
  <unicode hex="0073"/>
  <outline>
    <contour>
      <point x="212" y="511" type="curve" smooth="yes"/>
      <point x="312" y="511"/>
      <point x="393" y="469"/>
      <point x="393" y="469" type="curve"/>
      <point x="343" y="357" type="line"/>
      <point x="321" y="368"/>
      <point x="275" y="393"/>
      <point x="234" y="393" type="curve" smooth="yes"/>
      <point x="213" y="393"/>
      <point x="196" y="384"/>
      <point x="196" y="364" type="curve" smooth="yes"/>
      <point x="196" y="343"/>
      <point x="226" y="322"/>
      <point x="271" y="303" type="curve" smooth="yes"/>
      <point x="350" y="270"/>
      <point x="396" y="228"/>
      <point x="396" y="151" type="curve" smooth="yes"/>
      <point x="396" y="65"/>
      <point x="334" y="-10"/>
      <point x="216" y="-10" type="curve" smooth="yes"/>
      <point x="124" y="-10"/>
      <point x="50" y="21"/>
      <point x="17" y="36" type="curve"/>
      <point x="69" y="151" type="line"/>
      <point x="82" y="145"/>
      <point x="141" y="110"/>
      <point x="186" y="110" type="curve" smooth="yes"/>
      <point x="214" y="110"/>
      <point x="234" y="121"/>
      <point x="234" y="142" type="curve" smooth="yes"/>
      <point x="234" y="167"/>
      <point x="209" y="188"/>
      <point x="175" y="201" type="curve" smooth="yes"/>
      <point x="75" y="241"/>
      <point x="35" y="287"/>
      <point x="35" y="362" type="curve" smooth="yes"/>
      <point x="35" y="447"/>
      <point x="101" y="511"/>
    </contour>
  </outline>
</glyph>
<glyph name="t" format="1">
  <advance width="392"/>
  <unicode hex="0074"/>
  <outline>
    <contour>
      <point x="10" y="382" type="line"/>
      <point x="89" y="382" type="line"/>
      <point x="89" y="132" type="line" smooth="yes"/>
      <point x="89" y="33"/>
      <point x="149" y="-4"/>
      <point x="249" y="-4" type="curve" smooth="yes"/>
      <point x="317" y="-4"/>
      <point x="364" y="11"/>
      <point x="391" y="20" type="curve"/>
      <point x="364" y="126" type="line"/>
      <point x="364" y="126"/>
      <point x="324" y="115"/>
      <point x="292" y="115" type="curve" smooth="yes"/>
      <point x="262" y="115"/>
      <point x="246" y="130"/>
      <point x="246" y="159" type="curve" smooth="yes"/>
      <point x="246" y="382" type="line"/>
      <point x="345" y="382" type="line"/>
      <point x="364" y="498" type="line"/>
      <point x="246" y="498" type="line"/>
      <point x="246" y="631" type="line"/>
      <point x="109" y="601" type="line"/>
      <point x="92" y="498" type="line"/>
      <point x="10" y="498" type="line"/>
    </contour>
  </outline>
</glyph>
<glyph name="w" format="1">
  <advance width="771"/>
  <unicode hex="0077"/>
  <outline>
    <contour>
      <point x="564" y="502" type="line"/>
      <point x="567" y="476"/>
      <point x="575" y="434"/>
      <point x="575" y="367" type="curve" smooth="yes"/>
      <point x="575" y="230"/>
      <point x="569" y="106"/>
      <point x="510" y="106" type="curve" smooth="yes"/>
      <point x="484" y="106"/>
      <point x="470" y="138"/>
      <point x="470" y="176" type="curve" smooth="yes"/>
      <point x="470" y="225"/>
      <point x="472" y="501"/>
      <point x="472" y="502" type="curve"/>
      <point x="314" y="502" type="line"/>
      <point x="314" y="304" type="line" smooth="yes"/>
      <point x="314" y="165"/>
      <point x="294" y="106"/>
      <point x="250" y="106" type="curve" smooth="yes"/>
      <point x="224" y="106"/>
      <point x="210" y="138"/>
      <point x="210" y="176" type="curve" smooth="yes"/>
      <point x="210" y="502" type="line"/>
      <point x="52" y="502" type="line"/>
      <point x="52" y="172" type="line" smooth="yes"/>
      <point x="52" y="64"/>
      <point x="91" y="-6"/>
      <point x="204" y="-6" type="curve" smooth="yes"/>
      <point x="270" y="-6"/>
      <point x="316" y="8"/>
      <point x="352" y="60" type="curve"/>
      <point x="378" y="17"/>
      <point x="418" y="-6"/>
      <point x="472" y="-6" type="curve" smooth="yes"/>
      <point x="654" y="-6"/>
      <point x="733" y="98"/>
      <point x="733" y="375" type="curve" smooth="yes"/>
      <point x="733" y="427"/>
      <point x="726" y="481"/>
      <point x="722" y="502" type="curve"/>
    </contour>
  </outline>
</glyph>
<glyph name="x" format="1">
  <advance width="511"/>
  <unicode hex="0078"/>
  <outline>
    <contour>
      <point x="161" y="0" type="line"/>
      <point x="230" y="115" type="line"/>
      <point x="253" y="160" type="line"/>
      <point x="261" y="143"/>
      <point x="269" y="126"/>
      <point x="276" y="115" type="curve" smooth="yes"/>
      <point x="342" y="0" type="line"/>
      <point x="518" y="0" type="line"/>
      <point x="356" y="264" type="line"/>
      <point x="387" y="296"/>
      <point x="419" y="334"/>
      <point x="442" y="375" type="curve" smooth="yes"/>
      <point x="473" y="430"/>
      <point x="488" y="473"/>
      <point x="492" y="498" type="curve"/>
      <point x="328" y="498" type="line"/>
      <point x="325" y="479"/>
      <point x="315" y="447"/>
      <point x="296" y="410" type="curve" smooth="yes"/>
      <point x="289" y="397"/>
      <point x="277" y="372"/>
      <point x="267" y="357" type="curve"/>
      <point x="261" y="373"/>
      <point x="252" y="391"/>
      <point x="246" y="402" type="curve" smooth="yes"/>
      <point x="186" y="498" type="line"/>
      <point x="8" y="498" type="line"/>
      <point x="157" y="264" type="line"/>
      <point x="-13" y="0" type="line"/>
    </contour>
  </outline>
</glyph>
<glyph name="z" format="1">
  <advance width="423"/>
  <unicode hex="007A"/>
  <outline>
    <contour>
      <point x="406" y="0" type="line"/>
      <point x="406" y="115" type="line"/>
      <point x="269" y="115" type="line" smooth="yes"/>
      <point x="251" y="115"/>
      <point x="234" y="114"/>
      <point x="217" y="113" type="curve"/>
      <point x="397" y="401" type="line"/>
      <point x="397" y="498" type="line"/>
      <point x="30" y="498" type="line"/>
      <point x="50" y="382" type="line"/>
      <point x="142" y="382" type="line" smooth="yes"/>
      <point x="164" y="382"/>
      <point x="187" y="383"/>
      <point x="212" y="384" type="curve"/>
      <point x="22" y="88" type="line"/>
      <point x="22" y="0" type="line"/>
    </contour>
  </outline>
</glyph>
<glyph name="braceleft" format="1">
  <advance width="402"/>
  <unicode hex="007B"/>
  <outline>
    <contour>
      <point x="108" y="589" type="curve" smooth="yes"/>
      <point x="108" y="517"/>
      <point x="122" y="465"/>
      <point x="122" y="406" type="curve" smooth="yes"/>
      <point x="122" y="354"/>
      <point x="99" y="318"/>
      <point x="52" y="308" type="curve"/>
      <point x="52" y="201" type="line"/>
      <point x="99" y="191"/>
      <point x="122" y="156"/>
      <point x="122" y="104" type="curve" smooth="yes"/>
      <point x="122" y="45"/>
      <point x="108" y="-7"/>
      <point x="108" y="-79" type="curve" smooth="yes"/>
      <point x="108" y="-148"/>
      <point x="151" y="-214"/>
      <point x="269" y="-214" type="curve" smooth="yes"/>
      <point x="303" y="-214"/>
      <point x="344" y="-211"/>
      <point x="390" y="-198" type="curve"/>
      <point x="363" y="-100" type="line"/>
      <point x="352" y="-104"/>
      <point x="332" y="-108"/>
      <point x="315" y="-108" type="curve" smooth="yes"/>
      <point x="283" y="-108"/>
      <point x="268" y="-88"/>
      <point x="268" y="-64" type="curve" smooth="yes"/>
      <point x="268" y="-4"/>
      <point x="281" y="38"/>
      <point x="281" y="90" type="curve" smooth="yes"/>
      <point x="281" y="168"/>
      <point x="256" y="217"/>
      <point x="192" y="254" type="curve"/>
      <point x="256" y="291"/>
      <point x="281" y="341"/>
      <point x="281" y="420" type="curve" smooth="yes"/>
      <point x="281" y="472"/>
      <point x="268" y="514"/>
      <point x="268" y="574" type="curve" smooth="yes"/>
      <point x="268" y="598"/>
      <point x="283" y="618"/>
      <point x="315" y="618" type="curve" smooth="yes"/>
      <point x="332" y="618"/>
      <point x="352" y="613"/>
      <point x="363" y="610" type="curve"/>
      <point x="390" y="708" type="line"/>
      <point x="344" y="721"/>
      <point x="303" y="724"/>
      <point x="269" y="724" type="curve" smooth="yes"/>
      <point x="151" y="724"/>
      <point x="108" y="658"/>
    </contour>
  </outline>
</glyph>
<glyph name="bar" format="1">
  <advance width="339"/>
  <unicode hex="007C"/>
  <outline>
    <contour>
      <point x="92" y="730" type="line"/>
      <point x="92" y="-126" type="line"/>
      <point x="247" y="-126" type="line"/>
      <point x="247" y="730" type="line"/>
    </contour>
  </outline>
</glyph>
<glyph name="braceright" format="1">
  <advance width="402"/>
  <unicode hex="007D"/>
  <outline>
    <contour>
      <point x="294" y="589" type="curve" smooth="yes"/>
      <point x="294" y="658"/>
      <point x="251" y="724"/>
      <point x="133" y="724" type="curve" smooth="yes"/>
      <point x="100" y="724"/>
      <point x="58" y="721"/>
      <point x="12" y="708" type="curve"/>
      <point x="39" y="610" type="line"/>
      <point x="50" y="613"/>
      <point x="70" y="618"/>
      <point x="87" y="618" type="curve" smooth="yes"/>
      <point x="119" y="618"/>
      <point x="134" y="598"/>
      <point x="134" y="574" type="curve" smooth="yes"/>
      <point x="134" y="514"/>
      <point x="121" y="472"/>
      <point x="121" y="420" type="curve" smooth="yes"/>
      <point x="121" y="341"/>
      <point x="146" y="291"/>
      <point x="210" y="254" type="curve"/>
      <point x="146" y="217"/>
      <point x="121" y="168"/>
      <point x="121" y="90" type="curve" smooth="yes"/>
      <point x="121" y="38"/>
      <point x="134" y="-4"/>
      <point x="134" y="-64" type="curve" smooth="yes"/>
      <point x="134" y="-88"/>
      <point x="119" y="-108"/>
      <point x="87" y="-108" type="curve" smooth="yes"/>
      <point x="70" y="-108"/>
      <point x="50" y="-104"/>
      <point x="39" y="-100" type="curve"/>
      <point x="12" y="-198" type="line"/>
      <point x="58" y="-211"/>
      <point x="100" y="-214"/>
      <point x="133" y="-214" type="curve" smooth="yes"/>
      <point x="251" y="-214"/>
      <point x="294" y="-148"/>
      <point x="294" y="-79" type="curve" smooth="yes"/>
      <point x="294" y="-7"/>
      <point x="280" y="45"/>
      <point x="280" y="104" type="curve" smooth="yes"/>
      <point x="280" y="156"/>
      <point x="303" y="191"/>
      <point x="350" y="201" type="curve"/>
      <point x="350" y="308" type="line"/>
      <point x="303" y="318"/>
      <point x="280" y="354"/>
      <point x="280" y="406" type="curve" smooth="yes"/>
      <point x="280" y="465"/>
      <point x="294" y="517"/>
    </contour>
  </outline>
</glyph>
<glyph name="exclamdown" format="1">
  <advance width="329"/>
  <unicode hex="00A1"/>
  <outline>
    <contour>
      <point x="113" y="326" type="curve" smooth="yes"/>
      <point x="55" y="326"/>
      <point x="23" y="366"/>
      <point x="23" y="418" type="curve" smooth="yes"/>
      <point x="23" y="465"/>
      <point x="55" y="505"/>
      <point x="111" y="505" type="curve" smooth="yes"/>
      <point x="169" y="505"/>
      <point x="200" y="465"/>
      <point x="200" y="414" type="curve" smooth="yes"/>
      <point x="200" y="363"/>
      <point x="169" y="326"/>
    </contour>
    <contour>
      <point x="43" y="275" type="line"/>
      <point x="188" y="275" type="line"/>
      <point x="217" y="-182" type="line"/>
      <point x="43" y="-182" type="line"/>
    </contour>
  </outline>
</glyph>
<glyph name="sterling" format="1">
  <advance width="573"/>
  <unicode hex="00A3"/>
  <outline>
    <contour>
      <point x="58" y="357" type="line"/>
      <point x="58" y="236" type="line"/>
      <point x="116" y="236" type="line"/>
      <point x="113" y="195" type="line" smooth="yes"/>
      <point x="108" y="124"/>
      <point x="63" y="97"/>
      <point x="54" y="93" type="curve"/>
      <point x="93" y="-2" type="line"/>
      <point x="104" y="-1"/>
      <point x="159" y="6"/>
      <point x="237" y="6" type="curve" smooth="yes"/>
      <point x="282" y="6"/>
      <point x="331" y="-6"/>
      <point x="391" y="-6" type="curve" smooth="yes"/>
      <point x="456" y="-6"/>
      <point x="517" y="25"/>
      <point x="527" y="31" type="curve"/>
      <point x="480" y="142" type="line"/>
      <point x="467" y="134"/>
      <point x="431" y="119"/>
      <point x="390" y="119" type="curve" smooth="yes"/>
      <point x="351" y="119"/>
      <point x="315" y="125"/>
      <point x="277" y="125" type="curve" smooth="yes"/>
      <point x="267" y="125"/>
      <point x="256" y="124"/>
      <point x="245" y="123" type="curve"/>
      <point x="258" y="147"/>
      <point x="269" y="178"/>
      <point x="274" y="218" type="curve"/>
      <point x="275" y="236" type="line"/>
      <point x="428" y="236" type="line"/>
      <point x="449" y="357" type="line"/>
      <point x="288" y="357" type="line"/>
      <point x="296" y="436" type="line" smooth="yes"/>
      <point x="301" y="480"/>
      <point x="323" y="519"/>
      <point x="367" y="519" type="curve" smooth="yes"/>
      <point x="423" y="519"/>
      <point x="458" y="489"/>
      <point x="469" y="480" type="curve"/>
      <point x="530" y="586" type="line"/>
      <point x="506" y="607"/>
      <point x="449" y="643"/>
      <point x="360" y="643" type="curve" smooth="yes"/>
      <point x="216" y="643"/>
      <point x="141" y="554"/>
      <point x="131" y="429" type="curve" smooth="yes"/>
      <point x="126" y="357" type="line"/>
    </contour>
  </outline>
</glyph>
<glyph name="currency" format="1">
  <advance width="621"/>
  <unicode hex="00A4"/>
  <outline>
    <contour>
      <point x="80" y="283" type="curve" smooth="yes"/>
      <point x="80" y="233"/>
      <point x="94" y="187"/>
      <point x="120" y="149" type="curve"/>
      <point x="22" y="64" type="line"/>
      <point x="117" y="-31" type="line"/>
      <point x="210" y="73" type="line"/>
      <point x="239" y="60"/>
      <point x="273" y="52"/>
      <point x="309" y="52" type="curve" smooth="yes"/>
      <point x="346" y="52"/>
      <point x="380" y="60"/>
      <point x="411" y="73" type="curve"/>
      <point x="504" y="-31" type="line"/>
      <point x="599" y="64" type="line"/>
      <point x="502" y="148" type="line"/>
      <point x="527" y="186"/>
      <point x="542" y="231"/>
      <point x="542" y="283" type="curve" smooth="yes"/>
      <point x="542" y="335"/>
      <point x="527" y="381"/>
      <point x="502" y="418" type="curve"/>
      <point x="598" y="503" type="line"/>
      <point x="504" y="598" type="line"/>
      <point x="412" y="494" type="line"/>
      <point x="382" y="507"/>
      <point x="348" y="514"/>
      <point x="311" y="514" type="curve" smooth="yes"/>
      <point x="274" y="514"/>
      <point x="240" y="507"/>
      <point x="210" y="493" type="curve"/>
      <point x="117" y="598" type="line"/>
      <point x="23" y="503" type="line"/>
      <point x="119" y="418" type="line"/>
      <point x="94" y="380"/>
      <point x="80" y="334"/>
    </contour>
    <contour>
      <point x="196" y="288" type="curve" smooth="yes"/>
      <point x="196" y="358"/>
      <point x="244" y="408"/>
      <point x="310" y="408" type="curve" smooth="yes"/>
      <point x="377" y="408"/>
      <point x="426" y="352"/>
      <point x="426" y="282" type="curve" smooth="yes"/>
      <point x="426" y="213"/>
      <point x="377" y="161"/>
      <point x="310" y="161" type="curve" smooth="yes"/>
      <point x="244" y="161"/>
      <point x="196" y="217"/>
    </contour>
  </outline>
</glyph>
<glyph name="yen" format="1">
  <advance width="631"/>
  <unicode hex="00A5"/>
  <outline>
    <contour>
      <point x="99" y="352" type="line"/>
      <point x="99" y="235" type="line"/>
      <point x="230" y="235" type="line"/>
      <point x="230" y="194" type="line"/>
      <point x="99" y="194" type="line"/>
      <point x="99" y="76" type="line"/>
      <point x="230" y="76" type="line"/>
      <point x="230" y="0" type="line"/>
      <point x="394" y="0" type="line"/>
      <point x="394" y="76" type="line"/>
      <point x="526" y="76" type="line"/>
      <point x="526" y="194" type="line"/>
      <point x="394" y="194" type="line"/>
      <point x="394" y="235" type="line"/>
      <point x="526" y="235" type="line"/>
      <point x="526" y="352" type="line"/>
      <point x="443" y="352" type="line"/>
      <point x="609" y="644" type="line"/>
      <point x="436" y="644" type="line"/>
      <point x="315" y="401" type="line"/>
      <point x="197" y="644" type="line"/>
      <point x="22" y="644" type="line"/>
      <point x="187" y="352" type="line"/>
    </contour>
  </outline>
</glyph>
<glyph name="brokenbar" format="1">
  <advance width="339"/>
  <unicode hex="00A6"/>
  <outline>
    <contour>
      <point x="247" y="353" type="line"/>
      <point x="247" y="730" type="line"/>
      <point x="92" y="730" type="line"/>
      <point x="92" y="353" type="line"/>
    </contour>
    <contour>
      <point x="247" y="-126" type="line"/>
      <point x="247" y="250" type="line"/>
      <point x="92" y="250" type="line"/>
      <point x="92" y="-126" type="line"/>
    </contour>
  </outline>
</glyph>
<glyph name="section" format="1">
  <advance width="583"/>
  <unicode hex="00A7"/>
  <outline>
    <contour>
      <point x="371" y="181" type="curve" smooth="yes"/>
      <point x="371" y="146"/>
      <point x="341" y="128"/>
      <point x="310" y="117" type="curve"/>
      <point x="253" y="165"/>
      <point x="197" y="205"/>
      <point x="197" y="246" type="curve" smooth="yes"/>
      <point x="197" y="280"/>
      <point x="226" y="298"/>
      <point x="257" y="309" type="curve"/>
      <point x="315" y="262"/>
      <point x="371" y="221"/>
    </contour>
    <contour>
      <point x="270" y="-224" type="curve" smooth="yes"/>
      <point x="382" y="-224"/>
      <point x="447" y="-158"/>
      <point x="447" y="-72" type="curve" smooth="yes"/>
      <point x="447" y="-28"/>
      <point x="428" y="6"/>
      <point x="405" y="33" type="curve"/>
      <point x="491" y="72"/>
      <point x="525" y="127"/>
      <point x="525" y="197" type="curve" smooth="yes"/>
      <point x="525" y="271"/>
      <point x="482" y="320"/>
      <point x="421" y="367" type="curve" smooth="yes"/>
      <point x="349" y="423"/>
      <point x="282" y="467"/>
      <point x="282" y="501" type="curve" smooth="yes"/>
      <point x="282" y="523"/>
      <point x="297" y="532"/>
      <point x="320" y="532" type="curve" smooth="yes"/>
      <point x="348" y="532"/>
      <point x="383" y="517"/>
      <point x="403" y="508" type="curve"/>
      <point x="451" y="618" type="line"/>
      <point x="415" y="633"/>
      <point x="362" y="650"/>
      <point x="298" y="650" type="curve" smooth="yes"/>
      <point x="186" y="650"/>
      <point x="121" y="585"/>
      <point x="121" y="499" type="curve" smooth="yes"/>
      <point x="121" y="455"/>
      <point x="139" y="420"/>
      <point x="162" y="393" type="curve"/>
      <point x="76" y="354"/>
      <point x="42" y="299"/>
      <point x="42" y="230" type="curve" smooth="yes"/>
      <point x="42" y="160"/>
      <point x="81" y="112"/>
      <point x="138" y="66" type="curve" smooth="yes"/>
      <point x="211" y="7"/>
      <point x="286" y="-38"/>
      <point x="286" y="-75" type="curve" smooth="yes"/>
      <point x="286" y="-96"/>
      <point x="270" y="-105"/>
      <point x="248" y="-105" type="curve" smooth="yes"/>
      <point x="220" y="-105"/>
      <point x="183" y="-90"/>
      <point x="165" y="-81" type="curve"/>
      <point x="117" y="-191" type="line"/>
      <point x="150" y="-205"/>
      <point x="206" y="-224"/>
    </contour>
  </outline>
</glyph>
<glyph name="dieresis" format="1">
  <advance width="492"/>
  <unicode hex="00A8"/>
  <outline>
    <contour>
      <point x="250" y="487" type="move" name="_top"/>
    </contour>
    <contour>
      <point x="208" y="648" type="curve" smooth="yes"/>
      <point x="208" y="688"/>
      <point x="182" y="722"/>
      <point x="136" y="722" type="curve" smooth="yes"/>
      <point x="86" y="722"/>
      <point x="61" y="688"/>
      <point x="61" y="644" type="curve" smooth="yes"/>
      <point x="61" y="604"/>
      <point x="86" y="571"/>
      <point x="133" y="571" type="curve" smooth="yes"/>
      <point x="182" y="571"/>
      <point x="208" y="604"/>
    </contour>
    <contour>
      <point x="423" y="648" type="curve" smooth="yes"/>
      <point x="423" y="688"/>
      <point x="397" y="722"/>
      <point x="351" y="722" type="curve" smooth="yes"/>
      <point x="301" y="722"/>
      <point x="276" y="688"/>
      <point x="276" y="644" type="curve" smooth="yes"/>
      <point x="276" y="604"/>
      <point x="301" y="571"/>
      <point x="348" y="571" type="curve" smooth="yes"/>
      <point x="397" y="571"/>
      <point x="423" y="604"/>
    </contour>
  </outline>
</glyph>
<glyph name="copyright" format="1">
  <advance width="782"/>
  <unicode hex="00A9"/>
  <outline>
    <contour>
      <point x="37" y="340" type="curve" smooth="yes"/>
      <point x="37" y="133"/>
      <point x="180" y="-14"/>
      <point x="387" y="-14" type="curve" smooth="yes"/>
      <point x="594" y="-14"/>
      <point x="744" y="132"/>
      <point x="744" y="340" type="curve" smooth="yes"/>
      <point x="744" y="547"/>
      <point x="601" y="693"/>
      <point x="394" y="693" type="curve" smooth="yes"/>
      <point x="187" y="693"/>
      <point x="37" y="547"/>
    </contour>
    <contour>
      <point x="146" y="345" type="curve" smooth="yes"/>
      <point x="146" y="488"/>
      <point x="247" y="596"/>
      <point x="391" y="596" type="curve" smooth="yes"/>
      <point x="535" y="596"/>
      <point x="636" y="476"/>
      <point x="636" y="334" type="curve" smooth="yes"/>
      <point x="636" y="192"/>
      <point x="534" y="84"/>
      <point x="390" y="84" type="curve" smooth="yes"/>
      <point x="247" y="84"/>
      <point x="146" y="204"/>
    </contour>
    <contour>
      <point x="527" y="498" type="line"/>
      <point x="500" y="525"/>
      <point x="465" y="545"/>
      <point x="405" y="545" type="curve" smooth="yes"/>
      <point x="297" y="545"/>
      <point x="226" y="469"/>
      <point x="226" y="333" type="curve" smooth="yes"/>
      <point x="226" y="216"/>
      <point x="276" y="142"/>
      <point x="394" y="142" type="curve" smooth="yes"/>
      <point x="468" y="142"/>
      <point x="512" y="165"/>
      <point x="515" y="167" type="curve"/>
      <point x="487" y="270" type="line"/>
      <point x="479" y="266"/>
      <point x="459" y="258"/>
      <point x="433" y="258" type="curve" smooth="yes"/>
      <point x="400" y="258"/>
      <point x="379" y="282"/>
      <point x="379" y="345" type="curve" smooth="yes"/>
      <point x="379" y="393"/>
      <point x="388" y="430"/>
      <point x="418" y="430" type="curve" smooth="yes"/>
      <point x="437" y="430"/>
      <point x="446" y="423"/>
      <point x="455" y="419" type="curve"/>
    </contour>
  </outline>
</glyph>
<glyph name="ordfeminine" format="1">
  <advance width="418"/>
  <unicode hex="00AA"/>
  <outline>
    <contour>
      <point x="354" y="674" type="line"/>
      <point x="327" y="681"/>
      <point x="271" y="693"/>
      <point x="218" y="693" type="curve" smooth="yes"/>
      <point x="97" y="693"/>
      <point x="27" y="613"/>
      <point x="27" y="505" type="curve" smooth="yes"/>
      <point x="27" y="399"/>
      <point x="77" y="327"/>
      <point x="164" y="327" type="curve" smooth="yes"/>
      <point x="211" y="327"/>
      <point x="240" y="354"/>
      <point x="255" y="392" type="curve"/>
      <point x="264" y="352"/>
      <point x="289" y="330"/>
      <point x="295" y="325" type="curve"/>
      <point x="396" y="356" type="line"/>
      <point x="387" y="364"/>
      <point x="354" y="402"/>
      <point x="354" y="503" type="curve" smooth="yes"/>
    </contour>
    <contour>
      <point x="189" y="425" type="curve" smooth="yes"/>
      <point x="166" y="425"/>
      <point x="164" y="467"/>
      <point x="164" y="511" type="curve" smooth="yes"/>
      <point x="164" y="558"/>
      <point x="175" y="597"/>
      <point x="209" y="597" type="curve" smooth="yes"/>
      <point x="215" y="597"/>
      <point x="222" y="595"/>
      <point x="228" y="593" type="curve"/>
      <point x="228" y="529" type="line" smooth="yes"/>
      <point x="228" y="475"/>
      <point x="211" y="425"/>
    </contour>
  </outline>
</glyph>
<glyph name="guillemotleft" format="1">
  <advance width="605"/>
  <unicode hex="00AB"/>
  <outline>
    <contour>
      <point x="338" y="82" type="line"/>
      <point x="208" y="245" type="line"/>
      <point x="338" y="408" type="line"/>
      <point x="272" y="482" type="line"/>
      <point x="272" y="482"/>
      <point x="124" y="356"/>
      <point x="42" y="245" type="curve"/>
      <point x="124" y="133"/>
      <point x="272" y="7"/>
      <point x="272" y="7" type="curve"/>
    </contour>
    <contour>
      <point x="578" y="82" type="line"/>
      <point x="448" y="245" type="line"/>
      <point x="578" y="408" type="line"/>
      <point x="513" y="482" type="line"/>
      <point x="513" y="482"/>
      <point x="364" y="356"/>
      <point x="283" y="245" type="curve"/>
      <point x="364" y="133"/>
      <point x="513" y="7"/>
      <point x="513" y="7" type="curve"/>
    </contour>
  </outline>
</glyph>
<glyph name="logicalnot" format="1">
  <advance width="524"/>
  <unicode hex="00AC"/>
  <outline>
    <contour>
      <point x="42" y="295" type="line"/>
      <point x="368" y="295" type="line"/>
      <point x="368" y="168" type="line"/>
      <point x="482" y="168" type="line"/>
      <point x="482" y="411" type="line"/>
      <point x="42" y="411" type="line"/>
    </contour>
  </outline>
</glyph>
<glyph name="uni00AD" format="1">
  <advance width="375"/>
  <unicode hex="00AD"/>
  <outline>
    <contour>
      <point x="42" y="261" type="line"/>
      <point x="333" y="261" type="line"/>
      <point x="333" y="372" type="line"/>
      <point x="42" y="372" type="line"/>
    </contour>
  </outline>
</glyph>
<glyph name="macron" format="1">
  <advance width="492"/>
  <unicode hex="00AF"/>
  <outline>
    <contour>
      <point x="251" y="506" type="move" name="_top"/>
    </contour>
    <contour>
      <point x="73" y="572" type="line"/>
      <point x="404" y="572" type="line"/>
      <point x="404" y="683" type="line"/>
      <point x="73" y="683" type="line"/>
    </contour>
  </outline>
</glyph>
<glyph name="degree" format="1">
  <advance width="311"/>
  <unicode hex="00B0"/>
  <outline>
    <contour>
      <point x="32" y="596" type="curve" smooth="yes"/>
      <point x="32" y="525"/>
      <point x="79" y="471"/>
      <point x="154" y="471" type="curve" smooth="yes"/>
      <point x="226" y="471"/>
      <point x="279" y="521"/>
      <point x="279" y="596" type="curve" smooth="yes"/>
      <point x="279" y="668"/>
      <point x="232" y="721"/>
      <point x="157" y="721" type="curve" smooth="yes"/>
      <point x="85" y="721"/>
      <point x="32" y="672"/>
    </contour>
    <contour>
      <point x="116" y="597" type="curve" smooth="yes"/>
      <point x="116" y="628"/>
      <point x="131" y="643"/>
      <point x="155" y="643" type="curve" smooth="yes"/>
      <point x="180" y="643"/>
      <point x="196" y="625"/>
      <point x="196" y="596" type="curve" smooth="yes"/>
      <point x="196" y="565"/>
      <point x="180" y="548"/>
      <point x="155" y="548" type="curve" smooth="yes"/>
      <point x="135" y="548"/>
      <point x="116" y="565"/>
    </contour>
  </outline>
</glyph>
<glyph name="plusminus" format="1">
  <advance width="505"/>
  <unicode hex="00B1"/>
  <outline>
    <contour>
      <point x="53" y="243" type="line"/>
      <point x="192" y="243" type="line"/>
      <point x="192" y="139" type="line"/>
      <point x="52" y="139" type="line"/>
      <point x="52" y="23" type="line"/>
      <point x="453" y="23" type="line"/>
      <point x="453" y="139" type="line"/>
      <point x="314" y="139" type="line"/>
      <point x="314" y="243" type="line"/>
      <point x="453" y="243" type="line"/>
      <point x="453" y="359" type="line"/>
      <point x="314" y="359" type="line"/>
      <point x="314" y="498" type="line"/>
      <point x="192" y="498" type="line"/>
      <point x="192" y="359" type="line"/>
      <point x="53" y="359" type="line"/>
    </contour>
  </outline>
</glyph>
<glyph name="uni00B2" format="1">
  <advance width="323"/>
  <unicode hex="00B2"/>
  <outline>
    <contour>
      <point x="70" y="570" type="line"/>
      <point x="96" y="585"/>
      <point x="121" y="596"/>
      <point x="142" y="596" type="curve" smooth="yes"/>
      <point x="153" y="596"/>
      <point x="161" y="587"/>
      <point x="161" y="571" type="curve" smooth="yes"/>
      <point x="161" y="548"/>
      <point x="142" y="524"/>
      <point x="100" y="477" type="curve" smooth="yes"/>
      <point x="74" y="448"/>
      <point x="31" y="411"/>
      <point x="31" y="411" type="curve"/>
      <point x="31" y="328" type="line"/>
      <point x="298" y="328" type="line"/>
      <point x="298" y="423" type="line"/>
      <point x="191" y="423" type="line"/>
      <point x="205" y="436"/>
      <point x="217" y="448"/>
      <point x="225" y="457" type="curve" smooth="yes"/>
      <point x="268" y="503"/>
      <point x="289" y="545"/>
      <point x="289" y="591" type="curve" smooth="yes"/>
      <point x="289" y="659"/>
      <point x="239" y="693"/>
      <point x="172" y="693" type="curve" smooth="yes"/>
      <point x="114" y="693"/>
      <point x="60" y="673"/>
      <point x="27" y="654" type="curve"/>
    </contour>
  </outline>
</glyph>
<glyph name="acute" format="1">
  <advance width="492"/>
  <unicode hex="00B4"/>
  <outline>
    <contour>
      <point x="234" y="506" type="move" name="_top"/>
    </contour>
    <contour>
      <point x="206" y="557" type="line"/>
      <point x="206" y="557"/>
      <point x="341" y="639"/>
      <point x="425" y="743" type="curve"/>
      <point x="321" y="842" type="line"/>
      <point x="139" y="628" type="line"/>
    </contour>
  </outline>
</glyph>
<glyph name="uni00B5" format="1">
  <advance width="561"/>
  <unicode hex="00B5"/>
  <outline>
    <contour>
      <point x="57" y="-221" type="line"/>
      <point x="215" y="-194" type="line"/>
      <point x="215" y="7" type="line"/>
      <point x="230" y="-1"/>
      <point x="247" y="-6"/>
      <point x="265" y="-6" type="curve" smooth="yes"/>
      <point x="311" y="-6"/>
      <point x="349" y="21"/>
      <point x="371" y="80" type="curve"/>
      <point x="386" y="22"/>
      <point x="415" y="-6"/>
      <point x="418" y="-8" type="curve"/>
      <point x="544" y="32" type="line"/>
      <point x="543" y="34"/>
      <point x="489" y="83"/>
      <point x="489" y="241" type="curve" smooth="yes"/>
      <point x="489" y="502" type="line"/>
      <point x="331" y="502" type="line"/>
      <point x="331" y="246" type="line" smooth="yes"/>
      <point x="331" y="163"/>
      <point x="299" y="111"/>
      <point x="264" y="111" type="curve" smooth="yes"/>
      <point x="234" y="111"/>
      <point x="215" y="139"/>
      <point x="215" y="181" type="curve" smooth="yes"/>
      <point x="215" y="502" type="line"/>
      <point x="57" y="502" type="line"/>
    </contour>
  </outline>
</glyph>
<glyph name="paragraph" format="1">
  <advance width="592"/>
  <unicode hex="00B6"/>
  <outline>
    <contour>
      <point x="290" y="679" type="line"/>
      <point x="136" y="679"/>
      <point x="52" y="598"/>
      <point x="52" y="465" type="curve" smooth="yes"/>
      <point x="52" y="335"/>
      <point x="133" y="250"/>
      <point x="290" y="250" type="curve"/>
    </contour>
    <contour>
      <point x="530" y="677" type="line"/>
      <point x="365" y="677" type="line"/>
      <point x="365" y="41" type="line" smooth="yes"/>
      <point x="365" y="-7"/>
      <point x="365" y="-59"/>
      <point x="265" y="-112" type="curve"/>
      <point x="331" y="-223" type="line"/>
      <point x="443" y="-169"/>
      <point x="530" y="-107"/>
      <point x="530" y="43" type="curve" smooth="yes"/>
    </contour>
  </outline>
</glyph>
<glyph name="periodcentered" format="1">
  <advance width="262"/>
  <unicode hex="00B7"/>
  <outline>
    <contour>
      <point x="132" y="400" type="curve" smooth="yes"/>
      <point x="74" y="400"/>
      <point x="42" y="360"/>
      <point x="42" y="308" type="curve" smooth="yes"/>
      <point x="42" y="261"/>
      <point x="74" y="221"/>
      <point x="130" y="221" type="curve" smooth="yes"/>
      <point x="188" y="221"/>
      <point x="219" y="261"/>
      <point x="219" y="312" type="curve" smooth="yes"/>
      <point x="219" y="363"/>
      <point x="188" y="400"/>
    </contour>
  </outline>
</glyph>
<glyph name="uni00B9" format="1">
  <advance width="285"/>
  <unicode hex="00B9"/>
  <outline>
    <contour>
      <point x="143" y="684" type="line"/>
      <point x="105" y="649"/>
      <point x="35" y="620"/>
      <point x="2" y="609" type="curve"/>
      <point x="49" y="522" type="line"/>
      <point x="77" y="531"/>
      <point x="101" y="547"/>
      <point x="122" y="566" type="curve"/>
      <point x="122" y="328" type="line"/>
      <point x="245" y="328" type="line"/>
      <point x="245" y="684" type="line"/>
    </contour>
  </outline>
</glyph>
<glyph name="ordmasculine" format="1">
  <advance width="429"/>
  <unicode hex="00BA"/>
  <outline>
    <contour>
      <point x="218" y="693" type="curve" smooth="yes"/>
      <point x="94" y="693"/>
      <point x="37" y="613"/>
      <point x="37" y="506" type="curve" smooth="yes"/>
      <point x="37" y="395"/>
      <point x="87" y="327"/>
      <point x="212" y="327" type="curve" smooth="yes"/>
      <point x="335" y="327"/>
      <point x="391" y="408"/>
      <point x="391" y="514" type="curve" smooth="yes"/>
      <point x="391" y="626"/>
      <point x="342" y="693"/>
    </contour>
    <contour>
      <point x="211" y="608" type="curve" smooth="yes"/>
      <point x="244" y="608"/>
      <point x="254" y="563"/>
      <point x="254" y="508" type="curve" smooth="yes"/>
      <point x="254" y="455"/>
      <point x="245" y="412"/>
      <point x="218" y="412" type="curve" smooth="yes"/>
      <point x="185" y="412"/>
      <point x="175" y="459"/>
      <point x="175" y="514" type="curve" smooth="yes"/>
      <point x="175" y="567"/>
      <point x="183" y="608"/>
    </contour>
  </outline>
</glyph>
<glyph name="guillemotright" format="1">
  <advance width="605"/>
  <unicode hex="00BB"/>
  <outline>
    <contour>
      <point x="268" y="408" type="line"/>
      <point x="398" y="245" type="line"/>
      <point x="268" y="82" type="line"/>
      <point x="333" y="7" type="line"/>
      <point x="333" y="7"/>
      <point x="481" y="133"/>
      <point x="563" y="245" type="curve"/>
      <point x="481" y="356"/>
      <point x="333" y="482"/>
      <point x="333" y="482" type="curve"/>
    </contour>
    <contour>
      <point x="27" y="408" type="line"/>
      <point x="157" y="245" type="line"/>
      <point x="27" y="82" type="line"/>
      <point x="93" y="7" type="line"/>
      <point x="93" y="7"/>
      <point x="241" y="133"/>
      <point x="323" y="245" type="curve"/>
      <point x="241" y="356"/>
      <point x="93" y="482"/>
      <point x="93" y="482" type="curve"/>
    </contour>
  </outline>
</glyph>
<glyph name="onehalf" format="1">
  <advance width="794"/>
  <unicode hex="00BD"/>
  <outline>
    <contour>
      <point x="169" y="-8" type="line"/>
      <point x="301" y="-8" type="line"/>
      <point x="583" y="594" type="line"/>
      <point x="450" y="594" type="line"/>
    </contour>
    <contour>
      <point x="142" y="594" type="line"/>
      <point x="104" y="559"/>
      <point x="33" y="530"/>
      <point x="1" y="519" type="curve"/>
      <point x="47" y="432" type="line"/>
      <point x="76" y="441"/>
      <point x="100" y="456"/>
      <point x="121" y="476" type="curve"/>
      <point x="121" y="238" type="line"/>
      <point x="244" y="238" type="line"/>
      <point x="244" y="594" type="line"/>
    </contour>
    <contour>
      <point x="541" y="241" type="line"/>
      <point x="568" y="256"/>
      <point x="592" y="267"/>
      <point x="613" y="267" type="curve" smooth="yes"/>
      <point x="625" y="267"/>
      <point x="632" y="259"/>
      <point x="632" y="242" type="curve" smooth="yes"/>
      <point x="632" y="220"/>
      <point x="614" y="195"/>
      <point x="572" y="148" type="curve" smooth="yes"/>
      <point x="546" y="119"/>
      <point x="502" y="82"/>
      <point x="502" y="82" type="curve"/>
      <point x="502" y="0" type="line"/>
      <point x="769" y="0" type="line"/>
      <point x="769" y="95" type="line"/>
      <point x="662" y="95" type="line"/>
      <point x="676" y="108"/>
      <point x="689" y="120"/>
      <point x="697" y="129" type="curve" smooth="yes"/>
      <point x="739" y="174"/>
      <point x="761" y="217"/>
      <point x="761" y="263" type="curve" smooth="yes"/>
      <point x="761" y="331"/>
      <point x="711" y="365"/>
      <point x="643" y="365" type="curve" smooth="yes"/>
      <point x="586" y="365"/>
      <point x="531" y="345"/>
      <point x="499" y="326" type="curve"/>
    </contour>
  </outline>
</glyph>
<glyph name="threequarters" format="1">
  <advance width="816"/>
  <unicode hex="00BE"/>
  <outline>
    <contour>
      <point x="200" y="-8" type="line"/>
      <point x="333" y="-8" type="line"/>
      <point x="614" y="594" type="line"/>
      <point x="482" y="594" type="line"/>
    </contour>
    <contour>
      <point x="746" y="265" type="line"/>
      <point x="639" y="245" type="line"/>
      <point x="639" y="153" type="line"/>
      <point x="591" y="153" type="line"/>
      <point x="663" y="356" type="line"/>
      <point x="554" y="356" type="line"/>
      <point x="476" y="130" type="line"/>
      <point x="476" y="68" type="line"/>
      <point x="639" y="68" type="line"/>
      <point x="639" y="0" type="line"/>
      <point x="746" y="0" type="line"/>
      <point x="746" y="68" type="line"/>
      <point x="789" y="68" type="line"/>
      <point x="799" y="153" type="line"/>
      <point x="746" y="153" type="line"/>
    </contour>
    <contour>
      <point x="165" y="594" type="curve" smooth="yes"/>
      <point x="109" y="594"/>
      <point x="55" y="576"/>
      <point x="22" y="558" type="curve"/>
      <point x="64" y="473" type="line"/>
      <point x="99" y="491"/>
      <point x="121" y="497"/>
      <point x="138" y="497" type="curve" smooth="yes"/>
      <point x="148" y="497"/>
      <point x="154" y="491"/>
      <point x="154" y="481" type="curve" smooth="yes"/>
      <point x="154" y="455"/>
      <point x="112" y="450"/>
      <point x="80" y="441" type="curve"/>
      <point x="110" y="368" type="line"/>
      <point x="110" y="368"/>
      <point x="132" y="374"/>
      <point x="153" y="374" type="curve" smooth="yes"/>
      <point x="169" y="374"/>
      <point x="178" y="362"/>
      <point x="178" y="346" type="curve" smooth="yes"/>
      <point x="178" y="326"/>
      <point x="168" y="314"/>
      <point x="144" y="314" type="curve" smooth="yes"/>
      <point x="105" y="314"/>
      <point x="59" y="341"/>
      <point x="59" y="341" type="curve"/>
      <point x="26" y="260" type="line"/>
      <point x="64" y="238"/>
      <point x="114" y="222"/>
      <point x="153" y="222" type="curve" smooth="yes"/>
      <point x="260" y="222"/>
      <point x="296" y="282"/>
      <point x="296" y="343" type="curve" smooth="yes"/>
      <point x="296" y="390"/>
      <point x="266" y="418"/>
      <point x="225" y="431" type="curve"/>
      <point x="253" y="445"/>
      <point x="281" y="467"/>
      <point x="281" y="508" type="curve" smooth="yes"/>
      <point x="281" y="566"/>
      <point x="233" y="594"/>
    </contour>
  </outline>
</glyph>
<glyph name="Agrave" format="1">
  <advance width="649"/>
  <unicode hex="00C0"/>
  <outline>
    <contour>
      <point x="-1" y="0" type="line"/>
      <point x="163" y="0" type="line"/>
      <point x="215" y="163" type="line"/>
      <point x="434" y="163" type="line"/>
      <point x="484" y="0" type="line"/>
      <point x="651" y="0" type="line"/>
      <point x="403" y="677" type="line"/>
      <point x="256" y="677" type="line"/>
    </contour>
    <contour>
      <point x="253" y="285" type="line"/>
      <point x="280" y="362"/>
      <point x="310" y="457"/>
      <point x="325" y="508" type="curve"/>
      <point x="340" y="459"/>
      <point x="370" y="363"/>
      <point x="397" y="285" type="curve"/>
    </contour>
    <contour>
      <point x="384" y="799" type="line"/>
      <point x="177" y="972" type="line"/>
      <point x="77" y="871" type="line"/>
      <point x="165" y="774"/>
      <point x="297" y="732"/>
      <point x="322" y="725" type="curve"/>
    </contour>
  </outline>
</glyph>
<glyph name="Atilde" format="1">
  <advance width="649"/>
  <unicode hex="00C3"/>
  <outline>
    <contour>
      <point x="-1" y="0" type="line"/>
      <point x="163" y="0" type="line"/>
      <point x="215" y="163" type="line"/>
      <point x="434" y="163" type="line"/>
      <point x="484" y="0" type="line"/>
      <point x="651" y="0" type="line"/>
      <point x="403" y="677" type="line"/>
      <point x="256" y="677" type="line"/>
    </contour>
    <contour>
      <point x="253" y="285" type="line"/>
      <point x="280" y="362"/>
      <point x="310" y="457"/>
      <point x="325" y="508" type="curve"/>
      <point x="340" y="459"/>
      <point x="370" y="363"/>
      <point x="397" y="285" type="curve"/>
    </contour>
    <contour>
      <point x="154" y="757" type="line"/>
      <point x="154" y="757"/>
      <point x="193" y="771"/>
      <point x="242" y="771" type="curve" smooth="yes"/>
      <point x="294" y="771"/>
      <point x="349" y="751"/>
      <point x="402" y="751" type="curve" smooth="yes"/>
      <point x="451" y="751"/>
      <point x="482" y="774"/>
      <point x="482" y="774" type="curve"/>
      <point x="482" y="874" type="line"/>
      <point x="482" y="874"/>
      <point x="451" y="860"/>
      <point x="402" y="860" type="curve" smooth="yes"/>
      <point x="349" y="860"/>
      <point x="294" y="880"/>
      <point x="242" y="880" type="curve" smooth="yes"/>
      <point x="193" y="880"/>
      <point x="154" y="857"/>
      <point x="154" y="857" type="curve"/>
    </contour>
  </outline>
</glyph>
<glyph name="Adieresis" format="1">
  <advance width="649"/>
  <unicode hex="00C4"/>
  <outline>
    <contour>
      <point x="-1" y="0" type="line"/>
      <point x="163" y="0" type="line"/>
      <point x="215" y="163" type="line"/>
      <point x="434" y="163" type="line"/>
      <point x="484" y="0" type="line"/>
      <point x="651" y="0" type="line"/>
      <point x="403" y="677" type="line"/>
      <point x="256" y="677" type="line"/>
    </contour>
    <contour>
      <point x="253" y="285" type="line"/>
      <point x="280" y="362"/>
      <point x="310" y="457"/>
      <point x="325" y="508" type="curve"/>
      <point x="340" y="459"/>
      <point x="370" y="363"/>
      <point x="397" y="285" type="curve"/>
    </contour>
    <contour>
      <point x="290" y="822" type="curve" smooth="yes"/>
      <point x="290" y="862"/>
      <point x="264" y="896"/>
      <point x="218" y="896" type="curve" smooth="yes"/>
      <point x="168" y="896"/>
      <point x="143" y="862"/>
      <point x="143" y="818" type="curve" smooth="yes"/>
      <point x="143" y="778"/>
      <point x="168" y="745"/>
      <point x="215" y="745" type="curve" smooth="yes"/>
      <point x="264" y="745"/>
      <point x="290" y="778"/>
    </contour>
    <contour>
      <point x="505" y="822" type="curve" smooth="yes"/>
      <point x="505" y="862"/>
      <point x="479" y="896"/>
      <point x="433" y="896" type="curve" smooth="yes"/>
      <point x="383" y="896"/>
      <point x="358" y="862"/>
      <point x="358" y="818" type="curve" smooth="yes"/>
      <point x="358" y="778"/>
      <point x="383" y="745"/>
      <point x="430" y="745" type="curve" smooth="yes"/>
      <point x="479" y="745"/>
      <point x="505" y="778"/>
    </contour>
  </outline>
</glyph>
<glyph name="Ccedilla" format="1">
  <advance width="549"/>
  <unicode hex="00C7"/>
  <outline>
    <contour>
      <point x="537" y="603" type="line"/>
      <point x="499" y="646"/>
      <point x="448" y="686"/>
      <point x="341" y="686" type="curve" smooth="yes"/>
      <point x="137" y="686"/>
      <point x="39" y="537"/>
      <point x="39" y="330" type="curve" smooth="yes"/>
      <point x="39" y="139"/>
      <point x="111" y="21"/>
      <point x="273" y="-2" type="curve"/>
      <point x="251" y="-87" type="line"/>
      <point x="293" y="-87"/>
      <point x="345" y="-100"/>
      <point x="345" y="-127" type="curve" smooth="yes"/>
      <point x="345" y="-143"/>
      <point x="331" y="-151"/>
      <point x="300" y="-151" type="curve" smooth="yes"/>
      <point x="279" y="-151"/>
      <point x="252" y="-145"/>
      <point x="234" y="-137" type="curve"/>
      <point x="211" y="-212" type="line"/>
      <point x="241" y="-226"/>
      <point x="284" y="-236"/>
      <point x="326" y="-236" type="curve" smooth="yes"/>
      <point x="397" y="-236"/>
      <point x="457" y="-204"/>
      <point x="457" y="-126" type="curve" smooth="yes"/>
      <point x="457" y="-70"/>
      <point x="416" y="-42"/>
      <point x="364" y="-37" type="curve"/>
      <point x="371" y="-5" type="line"/>
      <point x="435" y="-1"/>
      <point x="486" y="13"/>
      <point x="521" y="27" type="curve"/>
      <point x="485" y="139" type="line"/>
      <point x="448" y="124"/>
      <point x="402" y="111"/>
      <point x="355" y="111" type="curve" smooth="yes"/>
      <point x="249" y="111"/>
      <point x="217" y="205"/>
      <point x="217" y="341" type="curve" smooth="yes"/>
      <point x="217" y="483"/>
      <point x="255" y="569"/>
      <point x="341" y="569" type="curve" smooth="yes"/>
      <point x="376" y="569"/>
      <point x="410" y="557"/>
      <point x="447" y="512" type="curve"/>
    </contour>
  </outline>
</glyph>
<glyph name="Eacute" format="1">
  <advance width="524"/>
  <unicode hex="00C9"/>
  <outline>
    <contour>
      <point x="62" y="0" type="line"/>
      <point x="507" y="0" type="line"/>
      <point x="507" y="121" type="line"/>
      <point x="227" y="121" type="line"/>
      <point x="227" y="292" type="line"/>
      <point x="429" y="292" type="line"/>
      <point x="448" y="411" type="line"/>
      <point x="227" y="411" type="line"/>
      <point x="227" y="556" type="line"/>
      <point x="493" y="556" type="line"/>
      <point x="493" y="677" type="line"/>
      <point x="62" y="677" type="line"/>
    </contour>
    <contour>
      <point x="297" y="725" type="line"/>
      <point x="321" y="732"/>
      <point x="453" y="774"/>
      <point x="542" y="871" type="curve"/>
      <point x="442" y="972" type="line"/>
      <point x="235" y="799" type="line"/>
    </contour>
  </outline>
</glyph>
<glyph name="Ecircumflex" format="1">
  <advance width="524"/>
  <unicode hex="00CA"/>
  <outline>
    <contour>
      <point x="62" y="0" type="line"/>
      <point x="507" y="0" type="line"/>
      <point x="507" y="121" type="line"/>
      <point x="227" y="121" type="line"/>
      <point x="227" y="292" type="line"/>
      <point x="429" y="292" type="line"/>
      <point x="448" y="411" type="line"/>
      <point x="227" y="411" type="line"/>
      <point x="227" y="556" type="line"/>
      <point x="493" y="556" type="line"/>
      <point x="493" y="677" type="line"/>
      <point x="62" y="677" type="line"/>
    </contour>
    <contour>
      <point x="156" y="725" type="line"/>
      <point x="184" y="737"/>
      <point x="239" y="760"/>
      <point x="300" y="803" type="curve"/>
      <point x="361" y="760"/>
      <point x="417" y="736"/>
      <point x="443" y="725" type="curve"/>
      <point x="505" y="800" type="line"/>
      <point x="300" y="976" type="line"/>
      <point x="95" y="800" type="line"/>
    </contour>
  </outline>
</glyph>
<glyph name="Edieresis" format="1">
  <advance width="524"/>
  <unicode hex="00CB"/>
  <outline>
    <contour>
      <point x="62" y="0" type="line"/>
      <point x="507" y="0" type="line"/>
      <point x="507" y="121" type="line"/>
      <point x="227" y="121" type="line"/>
      <point x="227" y="292" type="line"/>
      <point x="429" y="292" type="line"/>
      <point x="448" y="411" type="line"/>
      <point x="227" y="411" type="line"/>
      <point x="227" y="556" type="line"/>
      <point x="493" y="556" type="line"/>
      <point x="493" y="677" type="line"/>
      <point x="62" y="677" type="line"/>
    </contour>
    <contour>
      <point x="239" y="822" type="curve" smooth="yes"/>
      <point x="239" y="862"/>
      <point x="213" y="896"/>
      <point x="167" y="896" type="curve" smooth="yes"/>
      <point x="117" y="896"/>
      <point x="92" y="862"/>
      <point x="92" y="818" type="curve" smooth="yes"/>
      <point x="92" y="778"/>
      <point x="117" y="745"/>
      <point x="164" y="745" type="curve" smooth="yes"/>
      <point x="213" y="745"/>
      <point x="239" y="778"/>
    </contour>
    <contour>
      <point x="454" y="822" type="curve" smooth="yes"/>
      <point x="454" y="862"/>
      <point x="428" y="896"/>
      <point x="382" y="896" type="curve" smooth="yes"/>
      <point x="332" y="896"/>
      <point x="307" y="862"/>
      <point x="307" y="818" type="curve" smooth="yes"/>
      <point x="307" y="778"/>
      <point x="332" y="745"/>
      <point x="379" y="745" type="curve" smooth="yes"/>
      <point x="428" y="745"/>
      <point x="454" y="778"/>
    </contour>
  </outline>
</glyph>
<glyph name="Iacute" format="1">
  <advance width="289"/>
  <unicode hex="00CD"/>
  <outline>
    <contour>
      <point x="62" y="0" type="line"/>
      <point x="227" y="0" type="line"/>
      <point x="227" y="677" type="line"/>
      <point x="62" y="677" type="line"/>
    </contour>
    <contour>
      <point x="146" y="725" type="line"/>
      <point x="170" y="732"/>
      <point x="302" y="774"/>
      <point x="391" y="871" type="curve"/>
      <point x="291" y="972" type="line"/>
      <point x="84" y="799" type="line"/>
    </contour>
  </outline>
</glyph>
<glyph name="Icircumflex" format="1">
  <advance width="289"/>
  <unicode hex="00CE"/>
  <outline>
    <contour>
      <point x="62" y="0" type="line"/>
      <point x="227" y="0" type="line"/>
      <point x="227" y="677" type="line"/>
      <point x="62" y="677" type="line"/>
    </contour>
    <contour>
      <point x="6" y="725" type="line"/>
      <point x="34" y="737"/>
      <point x="89" y="760"/>
      <point x="150" y="803" type="curve"/>
      <point x="211" y="760"/>
      <point x="267" y="736"/>
      <point x="293" y="725" type="curve"/>
      <point x="355" y="800" type="line"/>
      <point x="150" y="976" type="line"/>
      <point x="-55" y="800" type="line"/>
    </contour>
  </outline>
</glyph>
<glyph name="Idieresis" format="1">
  <advance width="289"/>
  <unicode hex="00CF"/>
  <outline>
    <contour>
      <point x="62" y="0" type="line"/>
      <point x="227" y="0" type="line"/>
      <point x="227" y="677" type="line"/>
      <point x="62" y="677" type="line"/>
    </contour>
    <contour>
      <point x="111" y="822" type="curve" smooth="yes"/>
      <point x="111" y="862"/>
      <point x="85" y="896"/>
      <point x="39" y="896" type="curve" smooth="yes"/>
      <point x="-11" y="896"/>
      <point x="-36" y="862"/>
      <point x="-36" y="818" type="curve" smooth="yes"/>
      <point x="-36" y="778"/>
      <point x="-11" y="745"/>
      <point x="36" y="745" type="curve" smooth="yes"/>
      <point x="85" y="745"/>
      <point x="111" y="778"/>
    </contour>
    <contour>
      <point x="326" y="822" type="curve" smooth="yes"/>
      <point x="326" y="862"/>
      <point x="300" y="896"/>
      <point x="254" y="896" type="curve" smooth="yes"/>
      <point x="204" y="896"/>
      <point x="179" y="862"/>
      <point x="179" y="818" type="curve" smooth="yes"/>
      <point x="179" y="778"/>
      <point x="204" y="745"/>
      <point x="251" y="745" type="curve" smooth="yes"/>
      <point x="300" y="745"/>
      <point x="326" y="778"/>
    </contour>
  </outline>
</glyph>
<glyph name="Ntilde" format="1">
  <advance width="689"/>
  <unicode hex="00D1"/>
  <outline>
    <contour>
      <point x="465" y="418" type="line" smooth="yes"/>
      <point x="466" y="376"/>
      <point x="471" y="299"/>
      <point x="473" y="257" type="curve"/>
      <point x="454" y="288"/>
      <point x="416" y="351"/>
      <point x="392" y="387" type="curve" smooth="yes"/>
      <point x="197" y="677" type="line"/>
      <point x="62" y="677" type="line"/>
      <point x="62" y="0" type="line"/>
      <point x="227" y="0" type="line"/>
      <point x="224" y="260" type="line" smooth="yes"/>
      <point x="224" y="298"/>
      <point x="218" y="377"/>
      <point x="215" y="418" type="curve"/>
      <point x="233" y="389"/>
      <point x="276" y="317"/>
      <point x="293" y="292" type="curve" smooth="yes"/>
      <point x="486" y="0" type="line"/>
      <point x="627" y="0" type="line"/>
      <point x="627" y="677" type="line"/>
      <point x="462" y="677" type="line"/>
    </contour>
    <contour>
      <point x="180" y="760" type="line"/>
      <point x="180" y="760"/>
      <point x="219" y="774"/>
      <point x="268" y="774" type="curve" smooth="yes"/>
      <point x="320" y="774"/>
      <point x="375" y="754"/>
      <point x="428" y="754" type="curve" smooth="yes"/>
      <point x="477" y="754"/>
      <point x="508" y="777"/>
      <point x="508" y="777" type="curve"/>
      <point x="508" y="877" type="line"/>
      <point x="508" y="877"/>
      <point x="477" y="863"/>
      <point x="428" y="863" type="curve" smooth="yes"/>
      <point x="375" y="863"/>
      <point x="320" y="883"/>
      <point x="268" y="883" type="curve" smooth="yes"/>
      <point x="219" y="883"/>
      <point x="180" y="860"/>
      <point x="180" y="860" type="curve"/>
    </contour>
  </outline>
</glyph>
<glyph name="Ocircumflex" format="1">
  <advance width="693"/>
  <unicode hex="00D4"/>
  <outline>
    <contour>
      <point x="353" y="686" type="curve" smooth="yes"/>
      <point x="139" y="686"/>
      <point x="37" y="539"/>
      <point x="37" y="330" type="curve" smooth="yes"/>
      <point x="37" y="118"/>
      <point x="129" y="-6"/>
      <point x="340" y="-6" type="curve" smooth="yes"/>
      <point x="553" y="-6"/>
      <point x="655" y="136"/>
      <point x="655" y="344" type="curve" smooth="yes"/>
      <point x="655" y="555"/>
      <point x="563" y="686"/>
    </contour>
    <contour>
      <point x="339" y="569" type="curve" smooth="yes"/>
      <point x="447" y="569"/>
      <point x="477" y="469"/>
      <point x="477" y="334" type="curve" smooth="yes"/>
      <point x="477" y="192"/>
      <point x="440" y="111"/>
      <point x="354" y="111" type="curve" smooth="yes"/>
      <point x="245" y="111"/>
      <point x="215" y="206"/>
      <point x="215" y="341" type="curve" smooth="yes"/>
      <point x="215" y="484"/>
      <point x="252" y="569"/>
    </contour>
    <contour>
      <point x="216" y="725" type="line"/>
      <point x="244" y="737"/>
      <point x="299" y="760"/>
      <point x="360" y="803" type="curve"/>
      <point x="421" y="760"/>
      <point x="477" y="736"/>
      <point x="503" y="725" type="curve"/>
      <point x="565" y="800" type="line"/>
      <point x="360" y="976" type="line"/>
      <point x="155" y="800" type="line"/>
    </contour>
  </outline>
</glyph>
<glyph name="Odieresis" format="1">
  <advance width="693"/>
  <unicode hex="00D6"/>
  <outline>
    <contour>
      <point x="353" y="686" type="curve" smooth="yes"/>
      <point x="139" y="686"/>
      <point x="37" y="539"/>
      <point x="37" y="330" type="curve" smooth="yes"/>
      <point x="37" y="118"/>
      <point x="129" y="-6"/>
      <point x="340" y="-6" type="curve" smooth="yes"/>
      <point x="553" y="-6"/>
      <point x="655" y="136"/>
      <point x="655" y="344" type="curve" smooth="yes"/>
      <point x="655" y="555"/>
      <point x="563" y="686"/>
    </contour>
    <contour>
      <point x="339" y="569" type="curve" smooth="yes"/>
      <point x="447" y="569"/>
      <point x="477" y="469"/>
      <point x="477" y="334" type="curve" smooth="yes"/>
      <point x="477" y="192"/>
      <point x="440" y="111"/>
      <point x="354" y="111" type="curve" smooth="yes"/>
      <point x="245" y="111"/>
      <point x="215" y="206"/>
      <point x="215" y="341" type="curve" smooth="yes"/>
      <point x="215" y="484"/>
      <point x="252" y="569"/>
    </contour>
    <contour>
      <point x="312" y="822" type="curve" smooth="yes"/>
      <point x="312" y="862"/>
      <point x="286" y="896"/>
      <point x="240" y="896" type="curve" smooth="yes"/>
      <point x="190" y="896"/>
      <point x="165" y="862"/>
      <point x="165" y="818" type="curve" smooth="yes"/>
      <point x="165" y="778"/>
      <point x="190" y="745"/>
      <point x="237" y="745" type="curve" smooth="yes"/>
      <point x="286" y="745"/>
      <point x="312" y="778"/>
    </contour>
    <contour>
      <point x="527" y="822" type="curve" smooth="yes"/>
      <point x="527" y="862"/>
      <point x="501" y="896"/>
      <point x="455" y="896" type="curve" smooth="yes"/>
      <point x="405" y="896"/>
      <point x="380" y="862"/>
      <point x="380" y="818" type="curve" smooth="yes"/>
      <point x="380" y="778"/>
      <point x="405" y="745"/>
      <point x="452" y="745" type="curve" smooth="yes"/>
      <point x="501" y="745"/>
      <point x="527" y="778"/>
    </contour>
  </outline>
</glyph>
<glyph name="Oslash" format="1">
  <advance width="693"/>
  <unicode hex="00D8"/>
  <outline>
    <contour>
      <point x="353" y="686" type="curve" smooth="yes"/>
      <point x="139" y="686"/>
      <point x="37" y="539"/>
      <point x="37" y="330" type="curve" smooth="yes"/>
      <point x="37" y="205"/>
      <point x="68" y="111"/>
      <point x="137" y="55" type="curve"/>
      <point x="107" y="-13" type="line"/>
      <point x="246" y="-70" type="line"/>
      <point x="276" y="-2" type="line"/>
      <point x="296" y="-5"/>
      <point x="317" y="-6"/>
      <point x="340" y="-6" type="curve" smooth="yes"/>
      <point x="553" y="-6"/>
      <point x="655" y="136"/>
      <point x="655" y="344" type="curve" smooth="yes"/>
      <point x="655" y="466"/>
      <point x="624" y="562"/>
      <point x="557" y="621" type="curve"/>
      <point x="588" y="690" type="line"/>
      <point x="448" y="746" type="line"/>
      <point x="419" y="681" type="line"/>
      <point x="398" y="684"/>
      <point x="376" y="686"/>
    </contour>
    <contour>
      <point x="339" y="569" type="curve" smooth="yes"/>
      <point x="349" y="569"/>
      <point x="358" y="568"/>
      <point x="367" y="566" type="curve"/>
      <point x="222" y="243" type="line"/>
      <point x="217" y="272"/>
      <point x="215" y="305"/>
      <point x="215" y="341" type="curve" smooth="yes"/>
      <point x="215" y="484"/>
      <point x="252" y="569"/>
    </contour>
    <contour>
      <point x="477" y="334" type="curve" smooth="yes"/>
      <point x="477" y="192"/>
      <point x="440" y="111"/>
      <point x="354" y="111" type="curve" smooth="yes"/>
      <point x="345" y="111"/>
      <point x="336" y="111"/>
      <point x="328" y="113" type="curve"/>
      <point x="470" y="428" type="line"/>
      <point x="475" y="400"/>
      <point x="477" y="368"/>
    </contour>
  </outline>
</glyph>
<glyph name="Ugrave" format="1">
  <advance width="668"/>
  <unicode hex="00D9"/>
  <outline>
    <contour>
      <point x="52" y="677" type="line"/>
      <point x="52" y="265" type="line" smooth="yes"/>
      <point x="52" y="123"/>
      <point x="123" y="-6"/>
      <point x="327" y="-6" type="curve" smooth="yes"/>
      <point x="540" y="-6"/>
      <point x="616" y="122"/>
      <point x="616" y="265" type="curve" smooth="yes"/>
      <point x="616" y="677" type="line"/>
      <point x="451" y="677" type="line"/>
      <point x="451" y="274" type="line" smooth="yes"/>
      <point x="451" y="173"/>
      <point x="411" y="121"/>
      <point x="340" y="121" type="curve" smooth="yes"/>
      <point x="270" y="121"/>
      <point x="216" y="158"/>
      <point x="216" y="274" type="curve" smooth="yes"/>
      <point x="216" y="677" type="line"/>
    </contour>
    <contour>
      <point x="389" y="799" type="line"/>
      <point x="182" y="972" type="line"/>
      <point x="82" y="871" type="line"/>
      <point x="170" y="774"/>
      <point x="302" y="732"/>
      <point x="327" y="725" type="curve"/>
    </contour>
  </outline>
</glyph>
<glyph name="Ucircumflex" format="1">
  <advance width="668"/>
  <unicode hex="00DB"/>
  <outline>
    <contour>
      <point x="52" y="677" type="line"/>
      <point x="52" y="265" type="line" smooth="yes"/>
      <point x="52" y="123"/>
      <point x="123" y="-6"/>
      <point x="327" y="-6" type="curve" smooth="yes"/>
      <point x="540" y="-6"/>
      <point x="616" y="122"/>
      <point x="616" y="265" type="curve" smooth="yes"/>
      <point x="616" y="677" type="line"/>
      <point x="451" y="677" type="line"/>
      <point x="451" y="274" type="line" smooth="yes"/>
      <point x="451" y="173"/>
      <point x="411" y="121"/>
      <point x="340" y="121" type="curve" smooth="yes"/>
      <point x="270" y="121"/>
      <point x="216" y="158"/>
      <point x="216" y="274" type="curve" smooth="yes"/>
      <point x="216" y="677" type="line"/>
    </contour>
    <contour>
      <point x="190" y="725" type="line"/>
      <point x="218" y="737"/>
      <point x="273" y="760"/>
      <point x="334" y="803" type="curve"/>
      <point x="395" y="760"/>
      <point x="451" y="736"/>
      <point x="477" y="725" type="curve"/>
      <point x="539" y="800" type="line"/>
      <point x="334" y="976" type="line"/>
      <point x="129" y="800" type="line"/>
    </contour>
  </outline>
</glyph>
<glyph name="Yacute" format="1">
  <advance width="574"/>
  <unicode hex="00DD"/>
  <outline>
    <contour>
      <point x="201" y="0" type="line"/>
      <point x="365" y="0" type="line"/>
      <point x="365" y="251" type="line"/>
      <point x="581" y="677" type="line"/>
      <point x="409" y="677" type="line"/>
      <point x="286" y="418" type="line"/>
      <point x="166" y="677" type="line"/>
      <point x="-8" y="677" type="line"/>
      <point x="201" y="260" type="line"/>
    </contour>
    <contour>
      <point x="290" y="725" type="line"/>
      <point x="314" y="732"/>
      <point x="446" y="774"/>
      <point x="535" y="871" type="curve"/>
      <point x="435" y="972" type="line"/>
      <point x="228" y="799" type="line"/>
    </contour>
  </outline>
</glyph>
<glyph name="germandbls" format="1">
  <advance width="623"/>
  <unicode hex="00DF"/>
  <outline>
    <contour>
      <point x="238" y="486" type="line" smooth="yes"/>
      <point x="238" y="562"/>
      <point x="267" y="613"/>
      <point x="326" y="613" type="curve" smooth="yes"/>
      <point x="364" y="613"/>
      <point x="395" y="596"/>
      <point x="395" y="560" type="curve" smooth="yes"/>
      <point x="395" y="492"/>
      <point x="287" y="470"/>
      <point x="287" y="378" type="curve" smooth="yes"/>
      <point x="287" y="248"/>
      <point x="435" y="252"/>
      <point x="435" y="168" type="curve" smooth="yes"/>
      <point x="435" y="135"/>
      <point x="417" y="117"/>
      <point x="377" y="117" type="curve" smooth="yes"/>
      <point x="354" y="117"/>
      <point x="328" y="129"/>
      <point x="313" y="136" type="curve"/>
      <point x="265" y="30" type="line"/>
      <point x="267" y="29"/>
      <point x="324" y="-7"/>
      <point x="407" y="-7" type="curve" smooth="yes"/>
      <point x="529" y="-7"/>
      <point x="601" y="71"/>
      <point x="601" y="165" type="curve" smooth="yes"/>
      <point x="601" y="336"/>
      <point x="444" y="329"/>
      <point x="444" y="406" type="curve" smooth="yes"/>
      <point x="444" y="465"/>
      <point x="559" y="470"/>
      <point x="559" y="585" type="curve" smooth="yes"/>
      <point x="559" y="657"/>
      <point x="503" y="738"/>
      <point x="358" y="738" type="curve" smooth="yes"/>
      <point x="183" y="738"/>
      <point x="80" y="628"/>
      <point x="80" y="494" type="curve" smooth="yes"/>
      <point x="80" y="14" type="line" smooth="yes"/>
      <point x="80" y="-49"/>
      <point x="53" y="-102"/>
      <point x="-20" y="-140" type="curve"/>
      <point x="33" y="-224" type="line"/>
      <point x="140" y="-181"/>
      <point x="238" y="-130"/>
      <point x="238" y="25" type="curve" smooth="yes"/>
    </contour>
  </outline>
</glyph>
<glyph name="acircumflex" format="1">
  <advance width="544"/>
  <unicode hex="00E2"/>
  <outline>
    <contour>
      <point x="477" y="480" type="line"/>
      <point x="475" y="480"/>
      <point x="361" y="509"/>
      <point x="278" y="509" type="curve" smooth="yes"/>
      <point x="129" y="509"/>
      <point x="27" y="396"/>
      <point x="27" y="243" type="curve" smooth="yes"/>
      <point x="27" y="93"/>
      <point x="89" y="-6"/>
      <point x="220" y="-6" type="curve" smooth="yes"/>
      <point x="292" y="-6"/>
      <point x="335" y="30"/>
      <point x="357" y="92" type="curve"/>
      <point x="369" y="26"/>
      <point x="405" y="-8"/>
      <point x="405" y="-8" type="curve"/>
      <point x="532" y="32" type="line"/>
      <point x="532" y="32"/>
      <point x="477" y="83"/>
      <point x="477" y="241" type="curve" smooth="yes"/>
    </contour>
    <contour>
      <point x="246" y="110" type="curve" smooth="yes"/>
      <point x="198" y="110"/>
      <point x="195" y="179"/>
      <point x="195" y="253" type="curve" smooth="yes"/>
      <point x="195" y="334"/>
      <point x="213" y="393"/>
      <point x="278" y="393" type="curve" smooth="yes"/>
      <point x="290" y="393"/>
      <point x="310" y="389"/>
      <point x="319" y="385" type="curve"/>
      <point x="319" y="269" type="line" smooth="yes"/>
      <point x="319" y="185"/>
      <point x="287" y="110"/>
    </contour>
    <contour>
      <point x="148" y="557" type="line"/>
      <point x="176" y="571"/>
      <point x="224" y="595"/>
      <point x="282" y="639" type="curve"/>
      <point x="340" y="595"/>
      <point x="389" y="570"/>
      <point x="415" y="557" type="curve"/>
      <point x="476" y="631" type="line"/>
      <point x="282" y="828" type="line"/>
      <point x="87" y="631" type="line"/>
    </contour>
  </outline>
</glyph>
<glyph name="atilde" format="1">
  <advance width="544"/>
  <unicode hex="00E3"/>
  <outline>
    <contour>
      <point x="477" y="480" type="line"/>
      <point x="475" y="480"/>
      <point x="361" y="509"/>
      <point x="278" y="509" type="curve" smooth="yes"/>
      <point x="129" y="509"/>
      <point x="27" y="396"/>
      <point x="27" y="243" type="curve" smooth="yes"/>
      <point x="27" y="93"/>
      <point x="89" y="-6"/>
      <point x="220" y="-6" type="curve" smooth="yes"/>
      <point x="292" y="-6"/>
      <point x="335" y="30"/>
      <point x="357" y="92" type="curve"/>
      <point x="369" y="26"/>
      <point x="405" y="-8"/>
      <point x="405" y="-8" type="curve"/>
      <point x="532" y="32" type="line"/>
      <point x="532" y="32"/>
      <point x="477" y="83"/>
      <point x="477" y="241" type="curve" smooth="yes"/>
    </contour>
    <contour>
      <point x="246" y="110" type="curve" smooth="yes"/>
      <point x="198" y="110"/>
      <point x="195" y="179"/>
      <point x="195" y="253" type="curve" smooth="yes"/>
      <point x="195" y="334"/>
      <point x="213" y="393"/>
      <point x="278" y="393" type="curve" smooth="yes"/>
      <point x="290" y="393"/>
      <point x="310" y="389"/>
      <point x="319" y="385" type="curve"/>
      <point x="319" y="269" type="line" smooth="yes"/>
      <point x="319" y="185"/>
      <point x="287" y="110"/>
    </contour>
    <contour>
      <point x="121" y="586" type="line"/>
      <point x="121" y="586"/>
      <point x="160" y="600"/>
      <point x="209" y="600" type="curve" smooth="yes"/>
      <point x="261" y="600"/>
      <point x="316" y="580"/>
      <point x="369" y="580" type="curve" smooth="yes"/>
      <point x="418" y="580"/>
      <point x="449" y="603"/>
      <point x="449" y="603" type="curve"/>
      <point x="449" y="703" type="line"/>
      <point x="449" y="703"/>
      <point x="418" y="689"/>
      <point x="369" y="689" type="curve" smooth="yes"/>
      <point x="316" y="689"/>
      <point x="261" y="709"/>
      <point x="209" y="709" type="curve" smooth="yes"/>
      <point x="160" y="709"/>
      <point x="121" y="686"/>
      <point x="121" y="686" type="curve"/>
    </contour>
  </outline>
</glyph>
<glyph name="adieresis" format="1">
  <advance width="544"/>
  <unicode hex="00E4"/>
  <outline>
    <contour>
      <point x="477" y="480" type="line"/>
      <point x="475" y="480"/>
      <point x="361" y="509"/>
      <point x="278" y="509" type="curve" smooth="yes"/>
      <point x="129" y="509"/>
      <point x="27" y="396"/>
      <point x="27" y="243" type="curve" smooth="yes"/>
      <point x="27" y="93"/>
      <point x="89" y="-6"/>
      <point x="220" y="-6" type="curve" smooth="yes"/>
      <point x="292" y="-6"/>
      <point x="335" y="30"/>
      <point x="357" y="92" type="curve"/>
      <point x="369" y="26"/>
      <point x="405" y="-8"/>
      <point x="405" y="-8" type="curve"/>
      <point x="532" y="32" type="line"/>
      <point x="532" y="32"/>
      <point x="477" y="83"/>
      <point x="477" y="241" type="curve" smooth="yes"/>
    </contour>
    <contour>
      <point x="246" y="110" type="curve" smooth="yes"/>
      <point x="198" y="110"/>
      <point x="195" y="179"/>
      <point x="195" y="253" type="curve" smooth="yes"/>
      <point x="195" y="334"/>
      <point x="213" y="393"/>
      <point x="278" y="393" type="curve" smooth="yes"/>
      <point x="290" y="393"/>
      <point x="310" y="389"/>
      <point x="319" y="385" type="curve"/>
      <point x="319" y="269" type="line" smooth="yes"/>
      <point x="319" y="185"/>
      <point x="287" y="110"/>
    </contour>
    <contour>
      <point x="253" y="667" type="curve" smooth="yes"/>
      <point x="253" y="707"/>
      <point x="227" y="741"/>
      <point x="181" y="741" type="curve" smooth="yes"/>
      <point x="131" y="741"/>
      <point x="106" y="707"/>
      <point x="106" y="663" type="curve" smooth="yes"/>
      <point x="106" y="623"/>
      <point x="131" y="590"/>
      <point x="178" y="590" type="curve" smooth="yes"/>
      <point x="227" y="590"/>
      <point x="253" y="623"/>
    </contour>
    <contour>
      <point x="468" y="667" type="curve" smooth="yes"/>
      <point x="468" y="707"/>
      <point x="442" y="741"/>
      <point x="396" y="741" type="curve" smooth="yes"/>
      <point x="346" y="741"/>
      <point x="321" y="707"/>
      <point x="321" y="663" type="curve" smooth="yes"/>
      <point x="321" y="623"/>
      <point x="346" y="590"/>
      <point x="393" y="590" type="curve" smooth="yes"/>
      <point x="442" y="590"/>
      <point x="468" y="623"/>
    </contour>
  </outline>
</glyph>
<glyph name="aring" format="1">
  <advance width="544"/>
  <unicode hex="00E5"/>
  <outline>
    <contour>
      <point x="477" y="480" type="line"/>
      <point x="475" y="480"/>
      <point x="361" y="509"/>
      <point x="278" y="509" type="curve" smooth="yes"/>
      <point x="129" y="509"/>
      <point x="27" y="396"/>
      <point x="27" y="243" type="curve" smooth="yes"/>
      <point x="27" y="93"/>
      <point x="89" y="-6"/>
      <point x="220" y="-6" type="curve" smooth="yes"/>
      <point x="292" y="-6"/>
      <point x="335" y="30"/>
      <point x="357" y="92" type="curve"/>
      <point x="369" y="26"/>
      <point x="405" y="-8"/>
      <point x="405" y="-8" type="curve"/>
      <point x="532" y="32" type="line"/>
      <point x="532" y="32"/>
      <point x="477" y="83"/>
      <point x="477" y="241" type="curve" smooth="yes"/>
    </contour>
    <contour>
      <point x="246" y="110" type="curve" smooth="yes"/>
      <point x="198" y="110"/>
      <point x="195" y="179"/>
      <point x="195" y="253" type="curve" smooth="yes"/>
      <point x="195" y="334"/>
      <point x="213" y="393"/>
      <point x="278" y="393" type="curve" smooth="yes"/>
      <point x="290" y="393"/>
      <point x="310" y="389"/>
      <point x="319" y="385" type="curve"/>
      <point x="319" y="269" type="line" smooth="yes"/>
      <point x="319" y="185"/>
      <point x="287" y="110"/>
    </contour>
    <contour>
      <point x="168" y="653" type="curve" smooth="yes"/>
      <point x="168" y="591"/>
      <point x="209" y="543"/>
      <point x="275" y="543" type="curve" smooth="yes"/>
      <point x="339" y="543"/>
      <point x="385" y="587"/>
      <point x="385" y="653" type="curve" smooth="yes"/>
      <point x="385" y="716"/>
      <point x="344" y="763"/>
      <point x="278" y="763" type="curve" smooth="yes"/>
      <point x="215" y="763"/>
      <point x="168" y="720"/>
    </contour>
    <contour>
      <point x="242" y="654" type="curve" smooth="yes"/>
      <point x="242" y="680"/>
      <point x="255" y="694"/>
      <point x="276" y="694" type="curve" smooth="yes"/>
      <point x="298" y="694"/>
      <point x="311" y="678"/>
      <point x="311" y="653" type="curve" smooth="yes"/>
      <point x="311" y="625"/>
      <point x="298" y="611"/>
      <point x="276" y="611" type="curve" smooth="yes"/>
      <point x="258" y="611"/>
      <point x="242" y="625"/>
    </contour>
  </outline>
</glyph>
<glyph name="ae" format="1">
  <advance width="762"/>
  <unicode hex="00E6"/>
  <outline>
    <contour>
      <point x="278" y="509" type="curve" smooth="yes"/>
      <point x="129" y="509"/>
      <point x="27" y="396"/>
      <point x="27" y="243" type="curve" smooth="yes"/>
      <point x="27" y="93"/>
      <point x="89" y="-6"/>
      <point x="220" y="-6" type="curve" smooth="yes"/>
      <point x="285" y="-6"/>
      <point x="326" y="26"/>
      <point x="350" y="80" type="curve"/>
      <point x="386" y="24"/>
      <point x="446" y="-9"/>
      <point x="540" y="-9" type="curve" smooth="yes"/>
      <point x="647" y="-9"/>
      <point x="737" y="36"/>
      <point x="737" y="36" type="curve"/>
      <point x="707" y="140" type="line"/>
      <point x="707" y="140"/>
      <point x="623" y="108"/>
      <point x="565" y="108" type="curve" smooth="yes"/>
      <point x="516" y="108"/>
      <point x="493" y="135"/>
      <point x="484" y="175" type="curve"/>
      <point x="643" y="188"/>
      <point x="742" y="264"/>
      <point x="742" y="361" type="curve" smooth="yes"/>
      <point x="742" y="447"/>
      <point x="692" y="512"/>
      <point x="567" y="512" type="curve" smooth="yes"/>
      <point x="516" y="512"/>
      <point x="469" y="500"/>
      <point x="430" y="476" type="curve"/>
      <point x="392" y="492"/>
      <point x="340" y="509"/>
    </contour>
    <contour>
      <point x="246" y="110" type="curve" smooth="yes"/>
      <point x="198" y="110"/>
      <point x="195" y="179"/>
      <point x="195" y="253" type="curve" smooth="yes"/>
      <point x="195" y="334"/>
      <point x="213" y="393"/>
      <point x="278" y="393" type="curve" smooth="yes"/>
      <point x="301" y="393"/>
      <point x="321" y="386"/>
      <point x="341" y="375" type="curve"/>
      <point x="323" y="341"/>
      <point x="312" y="290"/>
      <point x="312" y="251" type="curve" smooth="yes"/>
      <point x="312" y="240"/>
      <point x="313" y="224"/>
      <point x="314" y="212" type="curve"/>
      <point x="303" y="153"/>
      <point x="277" y="110"/>
    </contour>
    <contour>
      <point x="547" y="399" type="curve" smooth="yes"/>
      <point x="568" y="399"/>
      <point x="585" y="382"/>
      <point x="585" y="357" type="curve" smooth="yes"/>
      <point x="585" y="325"/>
      <point x="554" y="278"/>
      <point x="476" y="276" type="curve"/>
      <point x="478" y="333"/>
      <point x="496" y="399"/>
    </contour>
  </outline>
</glyph>
<glyph name="ccedilla" format="1">
  <advance width="419"/>
  <unicode hex="00E7"/>
  <outline>
    <contour>
      <point x="416" y="441" type="line"/>
      <point x="385" y="483"/>
      <point x="335" y="512"/>
      <point x="270" y="512" type="curve" smooth="yes"/>
      <point x="131" y="512"/>
      <point x="27" y="417"/>
      <point x="27" y="237" type="curve" smooth="yes"/>
      <point x="27" y="109"/>
      <point x="78" y="18"/>
      <point x="198" y="-4" type="curve"/>
      <point x="177" y="-87" type="line"/>
      <point x="219" y="-87"/>
      <point x="271" y="-100"/>
      <point x="271" y="-127" type="curve" smooth="yes"/>
      <point x="271" y="-143"/>
      <point x="257" y="-151"/>
      <point x="226" y="-151" type="curve" smooth="yes"/>
      <point x="205" y="-151"/>
      <point x="178" y="-145"/>
      <point x="160" y="-137" type="curve"/>
      <point x="137" y="-212" type="line"/>
      <point x="167" y="-226"/>
      <point x="210" y="-236"/>
      <point x="252" y="-236" type="curve" smooth="yes"/>
      <point x="323" y="-236"/>
      <point x="383" y="-204"/>
      <point x="383" y="-126" type="curve" smooth="yes"/>
      <point x="383" y="-70"/>
      <point x="342" y="-42"/>
      <point x="290" y="-37" type="curve"/>
      <point x="297" y="-7" type="line"/>
      <point x="363" y="0"/>
      <point x="406" y="24"/>
      <point x="407" y="25" type="curve"/>
      <point x="378" y="130" type="line"/>
      <point x="375" y="129"/>
      <point x="326" y="110"/>
      <point x="294" y="110" type="curve" smooth="yes"/>
      <point x="251" y="110"/>
      <point x="195" y="128"/>
      <point x="195" y="254" type="curve" smooth="yes"/>
      <point x="195" y="381"/>
      <point x="247" y="394"/>
      <point x="280" y="394" type="curve" smooth="yes"/>
      <point x="307" y="394"/>
      <point x="322" y="379"/>
      <point x="338" y="360" type="curve"/>
    </contour>
  </outline>
</glyph>
<glyph name="egrave" format="1">
  <advance width="479"/>
  <unicode hex="00E8"/>
  <outline>
    <contour>
      <point x="27" y="237" type="curve" smooth="yes"/>
      <point x="27" y="90"/>
      <point x="92" y="-9"/>
      <point x="255" y="-9" type="curve" smooth="yes"/>
      <point x="361" y="-9"/>
      <point x="452" y="36"/>
      <point x="452" y="36" type="curve"/>
      <point x="422" y="140" type="line"/>
      <point x="422" y="140"/>
      <point x="338" y="108"/>
      <point x="280" y="108" type="curve" smooth="yes"/>
      <point x="230" y="108"/>
      <point x="207" y="135"/>
      <point x="198" y="175" type="curve"/>
      <point x="357" y="188"/>
      <point x="456" y="264"/>
      <point x="456" y="361" type="curve" smooth="yes"/>
      <point x="456" y="447"/>
      <point x="406" y="512"/>
      <point x="281" y="512" type="curve" smooth="yes"/>
      <point x="138" y="512"/>
      <point x="27" y="416"/>
    </contour>
    <contour>
      <point x="261" y="399" type="curve" smooth="yes"/>
      <point x="283" y="399"/>
      <point x="299" y="382"/>
      <point x="299" y="357" type="curve" smooth="yes"/>
      <point x="299" y="325"/>
      <point x="269" y="278"/>
      <point x="190" y="276" type="curve"/>
      <point x="192" y="333"/>
      <point x="210" y="399"/>
    </contour>
    <contour>
      <point x="333" y="628" type="line"/>
      <point x="150" y="842" type="line"/>
      <point x="46" y="743" type="line"/>
      <point x="130" y="639"/>
      <point x="255" y="565"/>
      <point x="266" y="557" type="curve"/>
    </contour>
  </outline>
</glyph>
<glyph name="edieresis" format="1">
  <advance width="479"/>
  <unicode hex="00EB"/>
  <outline>
    <contour>
      <point x="27" y="237" type="curve" smooth="yes"/>
      <point x="27" y="90"/>
      <point x="92" y="-9"/>
      <point x="255" y="-9" type="curve" smooth="yes"/>
      <point x="361" y="-9"/>
      <point x="452" y="36"/>
      <point x="452" y="36" type="curve"/>
      <point x="422" y="140" type="line"/>
      <point x="422" y="140"/>
      <point x="338" y="108"/>
      <point x="280" y="108" type="curve" smooth="yes"/>
      <point x="230" y="108"/>
      <point x="207" y="135"/>
      <point x="198" y="175" type="curve"/>
      <point x="357" y="188"/>
      <point x="456" y="264"/>
      <point x="456" y="361" type="curve" smooth="yes"/>
      <point x="456" y="447"/>
      <point x="406" y="512"/>
      <point x="281" y="512" type="curve" smooth="yes"/>
      <point x="138" y="512"/>
      <point x="27" y="416"/>
    </contour>
    <contour>
      <point x="261" y="399" type="curve" smooth="yes"/>
      <point x="283" y="399"/>
      <point x="299" y="382"/>
      <point x="299" y="357" type="curve" smooth="yes"/>
      <point x="299" y="325"/>
      <point x="269" y="278"/>
      <point x="190" y="276" type="curve"/>
      <point x="192" y="333"/>
      <point x="210" y="399"/>
    </contour>
    <contour>
      <point x="231" y="667" type="curve" smooth="yes"/>
      <point x="231" y="707"/>
      <point x="205" y="741"/>
      <point x="159" y="741" type="curve" smooth="yes"/>
      <point x="109" y="741"/>
      <point x="84" y="707"/>
      <point x="84" y="663" type="curve" smooth="yes"/>
      <point x="84" y="623"/>
      <point x="109" y="590"/>
      <point x="156" y="590" type="curve" smooth="yes"/>
      <point x="205" y="590"/>
      <point x="231" y="623"/>
    </contour>
    <contour>
      <point x="446" y="667" type="curve" smooth="yes"/>
      <point x="446" y="707"/>
      <point x="420" y="741"/>
      <point x="374" y="741" type="curve" smooth="yes"/>
      <point x="324" y="741"/>
      <point x="299" y="707"/>
      <point x="299" y="663" type="curve" smooth="yes"/>
      <point x="299" y="623"/>
      <point x="324" y="590"/>
      <point x="371" y="590" type="curve" smooth="yes"/>
      <point x="420" y="590"/>
      <point x="446" y="623"/>
    </contour>
  </outline>
</glyph>
<glyph name="iacute" format="1">
  <advance width="276"/>
  <unicode hex="00ED"/>
  <outline>
    <contour>
      <point x="169" y="-4" type="curve" smooth="yes"/>
      <point x="223" y="-4"/>
      <point x="266" y="18"/>
      <point x="268" y="20" type="curve"/>
      <point x="254" y="119" type="line"/>
      <point x="252" y="118"/>
      <point x="238" y="115"/>
      <point x="228" y="115" type="curve" smooth="yes"/>
      <point x="209" y="115"/>
      <point x="200" y="124"/>
      <point x="200" y="154" type="curve" smooth="yes"/>
      <point x="200" y="502" type="line"/>
      <point x="42" y="502" type="line"/>
      <point x="42" y="109" type="line" smooth="yes"/>
      <point x="42" y="38"/>
      <point x="94" y="-4"/>
    </contour>
    <contour>
      <point x="110" y="540" type="line"/>
      <point x="110" y="540"/>
      <point x="208" y="622"/>
      <point x="293" y="727" type="curve"/>
      <point x="188" y="825" type="line"/>
      <point x="43" y="611" type="line"/>
    </contour>
  </outline>
</glyph>
<glyph name="icircumflex" format="1">
  <advance width="276"/>
  <unicode hex="00EE"/>
  <outline>
    <contour>
      <point x="169" y="-4" type="curve" smooth="yes"/>
      <point x="223" y="-4"/>
      <point x="266" y="18"/>
      <point x="268" y="20" type="curve"/>
      <point x="254" y="119" type="line"/>
      <point x="252" y="118"/>
      <point x="238" y="115"/>
      <point x="228" y="115" type="curve" smooth="yes"/>
      <point x="209" y="115"/>
      <point x="200" y="124"/>
      <point x="200" y="154" type="curve" smooth="yes"/>
      <point x="200" y="502" type="line"/>
      <point x="42" y="502" type="line"/>
      <point x="42" y="109" type="line" smooth="yes"/>
      <point x="42" y="38"/>
      <point x="94" y="-4"/>
    </contour>
    <contour>
      <point x="122" y="620" type="curve"/>
      <point x="167" y="584"/>
      <point x="206" y="559"/>
      <point x="243" y="537" type="curve"/>
      <point x="305" y="610" type="line"/>
      <point x="122" y="794" type="line"/>
      <point x="-61" y="610" type="line"/>
      <point x="1" y="537" type="line"/>
      <point x="39" y="559"/>
      <point x="77" y="584"/>
    </contour>
  </outline>
</glyph>
<glyph name="idieresis" format="1">
  <advance width="276"/>
  <unicode hex="00EF"/>
  <outline>
    <contour>
      <point x="169" y="-4" type="curve" smooth="yes"/>
      <point x="223" y="-4"/>
      <point x="266" y="18"/>
      <point x="268" y="20" type="curve"/>
      <point x="254" y="119" type="line"/>
      <point x="252" y="118"/>
      <point x="238" y="115"/>
      <point x="228" y="115" type="curve" smooth="yes"/>
      <point x="209" y="115"/>
      <point x="200" y="124"/>
      <point x="200" y="154" type="curve" smooth="yes"/>
      <point x="200" y="502" type="line"/>
      <point x="42" y="502" type="line"/>
      <point x="42" y="109" type="line" smooth="yes"/>
      <point x="42" y="38"/>
      <point x="94" y="-4"/>
    </contour>
    <contour>
      <point x="109" y="647" type="curve" smooth="yes"/>
      <point x="109" y="687"/>
      <point x="83" y="721"/>
      <point x="37" y="721" type="curve" smooth="yes"/>
      <point x="-12" y="721"/>
      <point x="-37" y="687"/>
      <point x="-37" y="644" type="curve" smooth="yes"/>
      <point x="-37" y="604"/>
      <point x="-12" y="571"/>
      <point x="34" y="571" type="curve" smooth="yes"/>
      <point x="83" y="571"/>
      <point x="109" y="604"/>
    </contour>
    <contour>
      <point x="282" y="647" type="curve" smooth="yes"/>
      <point x="282" y="687"/>
      <point x="257" y="721"/>
      <point x="211" y="721" type="curve" smooth="yes"/>
      <point x="162" y="721"/>
      <point x="136" y="687"/>
      <point x="136" y="644" type="curve" smooth="yes"/>
      <point x="136" y="604"/>
      <point x="162" y="571"/>
      <point x="208" y="571" type="curve" smooth="yes"/>
      <point x="257" y="571"/>
      <point x="282" y="604"/>
    </contour>
  </outline>
</glyph>
<glyph name="eth" format="1">
  <advance width="512"/>
  <unicode hex="00F0"/>
  <outline>
    <contour>
      <point x="492" y="263" type="curve" smooth="yes"/>
      <point x="492" y="378"/>
      <point x="473" y="488"/>
      <point x="422" y="581" type="curve"/>
      <point x="494" y="596" type="line"/>
      <point x="471" y="686" type="line"/>
      <point x="371" y="656" type="line"/>
      <point x="341" y="692"/>
      <point x="305" y="725"/>
      <point x="261" y="752" type="curve"/>
      <point x="184" y="659" type="line"/>
      <point x="235" y="623" type="line"/>
      <point x="178" y="613" type="line"/>
      <point x="201" y="523" type="line"/>
      <point x="301" y="551" type="line"/>
      <point x="310" y="532"/>
      <point x="319" y="512"/>
      <point x="326" y="490" type="curve"/>
      <point x="306" y="499"/>
      <point x="282" y="506"/>
      <point x="254" y="506" type="curve" smooth="yes"/>
      <point x="107" y="506"/>
      <point x="27" y="393"/>
      <point x="27" y="244" type="curve" smooth="yes"/>
      <point x="27" y="89"/>
      <point x="96" y="-10"/>
      <point x="256" y="-10" type="curve" smooth="yes"/>
      <point x="414" y="-10"/>
      <point x="492" y="104"/>
    </contour>
    <contour>
      <point x="255" y="388" type="curve" smooth="yes"/>
      <point x="312" y="388"/>
      <point x="325" y="325"/>
      <point x="325" y="245" type="curve" smooth="yes"/>
      <point x="325" y="172"/>
      <point x="314" y="109"/>
      <point x="265" y="109" type="curve" smooth="yes"/>
      <point x="208" y="109"/>
      <point x="195" y="176"/>
      <point x="195" y="255" type="curve" smooth="yes"/>
      <point x="195" y="330"/>
      <point x="206" y="388"/>
    </contour>
  </outline>
</glyph>
<glyph name="ntilde" format="1">
  <advance width="557"/>
  <unicode hex="00F1"/>
  <outline>
    <contour>
      <point x="505" y="0" type="line"/>
      <point x="505" y="335" type="line" smooth="yes"/>
      <point x="505" y="440"/>
      <point x="465" y="509"/>
      <point x="361" y="509" type="curve" smooth="yes"/>
      <point x="290" y="509"/>
      <point x="225" y="480"/>
      <point x="190" y="418" type="curve"/>
      <point x="176" y="477"/>
      <point x="144" y="509"/>
      <point x="144" y="509" type="curve"/>
      <point x="17" y="469" type="line"/>
      <point x="17" y="469"/>
      <point x="72" y="418"/>
      <point x="72" y="260" type="curve" smooth="yes"/>
      <point x="72" y="0" type="line"/>
      <point x="230" y="0" type="line"/>
      <point x="230" y="251" type="line" smooth="yes"/>
      <point x="230" y="338"/>
      <point x="269" y="390"/>
      <point x="306" y="390" type="curve" smooth="yes"/>
      <point x="337" y="390"/>
      <point x="346" y="358"/>
      <point x="346" y="312" type="curve" smooth="yes"/>
      <point x="346" y="0" type="line"/>
    </contour>
    <contour>
      <point x="170" y="586" type="line"/>
      <point x="170" y="586"/>
      <point x="209" y="600"/>
      <point x="258" y="600" type="curve" smooth="yes"/>
      <point x="310" y="600"/>
      <point x="365" y="580"/>
      <point x="418" y="580" type="curve" smooth="yes"/>
      <point x="467" y="580"/>
      <point x="498" y="603"/>
      <point x="498" y="603" type="curve"/>
      <point x="498" y="703" type="line"/>
      <point x="498" y="703"/>
      <point x="467" y="689"/>
      <point x="418" y="689" type="curve" smooth="yes"/>
      <point x="365" y="689"/>
      <point x="310" y="709"/>
      <point x="258" y="709" type="curve" smooth="yes"/>
      <point x="209" y="709"/>
      <point x="170" y="686"/>
      <point x="170" y="686" type="curve"/>
    </contour>
  </outline>
</glyph>
<glyph name="oacute" format="1">
  <advance width="520"/>
  <unicode hex="00F3"/>
  <outline>
    <contour>
      <point x="264" y="512" type="curve" smooth="yes"/>
      <point x="105" y="512"/>
      <point x="27" y="397"/>
      <point x="27" y="245" type="curve" smooth="yes"/>
      <point x="27" y="87"/>
      <point x="96" y="-10"/>
      <point x="256" y="-10" type="curve" smooth="yes"/>
      <point x="414" y="-10"/>
      <point x="492" y="105"/>
      <point x="492" y="256" type="curve" smooth="yes"/>
      <point x="492" y="416"/>
      <point x="423" y="512"/>
    </contour>
    <contour>
      <point x="255" y="393" type="curve" smooth="yes"/>
      <point x="312" y="393"/>
      <point x="325" y="328"/>
      <point x="325" y="246" type="curve" smooth="yes"/>
      <point x="325" y="171"/>
      <point x="314" y="109"/>
      <point x="265" y="109" type="curve" smooth="yes"/>
      <point x="208" y="109"/>
      <point x="195" y="175"/>
      <point x="195" y="256" type="curve" smooth="yes"/>
      <point x="195" y="333"/>
      <point x="206" y="393"/>
    </contour>
    <contour>
      <point x="263" y="557" type="line"/>
      <point x="263" y="557"/>
      <point x="398" y="639"/>
      <point x="482" y="743" type="curve"/>
      <point x="378" y="842" type="line"/>
      <point x="196" y="628" type="line"/>
    </contour>
  </outline>
</glyph>
<glyph name="ocircumflex" format="1">
  <advance width="520"/>
  <unicode hex="00F4"/>
  <outline>
    <contour>
      <point x="264" y="512" type="curve" smooth="yes"/>
      <point x="105" y="512"/>
      <point x="27" y="397"/>
      <point x="27" y="245" type="curve" smooth="yes"/>
      <point x="27" y="87"/>
      <point x="96" y="-10"/>
      <point x="256" y="-10" type="curve" smooth="yes"/>
      <point x="414" y="-10"/>
      <point x="492" y="105"/>
      <point x="492" y="256" type="curve" smooth="yes"/>
      <point x="492" y="416"/>
      <point x="423" y="512"/>
    </contour>
    <contour>
      <point x="255" y="393" type="curve" smooth="yes"/>
      <point x="312" y="393"/>
      <point x="325" y="328"/>
      <point x="325" y="246" type="curve" smooth="yes"/>
      <point x="325" y="171"/>
      <point x="314" y="109"/>
      <point x="265" y="109" type="curve" smooth="yes"/>
      <point x="208" y="109"/>
      <point x="195" y="175"/>
      <point x="195" y="256" type="curve" smooth="yes"/>
      <point x="195" y="333"/>
      <point x="206" y="393"/>
    </contour>
    <contour>
      <point x="126" y="557" type="line"/>
      <point x="154" y="571"/>
      <point x="202" y="595"/>
      <point x="260" y="639" type="curve"/>
      <point x="318" y="595"/>
      <point x="367" y="570"/>
      <point x="393" y="557" type="curve"/>
      <point x="454" y="631" type="line"/>
      <point x="260" y="828" type="line"/>
      <point x="65" y="631" type="line"/>
    </contour>
  </outline>
</glyph>
<glyph name="oslash" format="1">
  <advance width="520"/>
  <unicode hex="00F8"/>
  <outline>
    <contour>
      <point x="264" y="512" type="curve" smooth="yes"/>
      <point x="105" y="512"/>
      <point x="27" y="397"/>
      <point x="27" y="245" type="curve" smooth="yes"/>
      <point x="27" y="156"/>
      <point x="49" y="86"/>
      <point x="97" y="42" type="curve"/>
      <point x="66" y="-21" type="line"/>
      <point x="165" y="-68" type="line"/>
      <point x="196" y="-4" type="line"/>
      <point x="214" y="-8"/>
      <point x="234" y="-10"/>
      <point x="256" y="-10" type="curve" smooth="yes"/>
      <point x="414" y="-10"/>
      <point x="492" y="105"/>
      <point x="492" y="256" type="curve" smooth="yes"/>
      <point x="492" y="346"/>
      <point x="470" y="415"/>
      <point x="422" y="459" type="curve"/>
      <point x="454" y="524" type="line"/>
      <point x="355" y="570" type="line"/>
      <point x="324" y="506" type="line"/>
      <point x="305" y="510"/>
      <point x="285" y="512"/>
    </contour>
    <contour>
      <point x="255" y="393" type="curve" smooth="yes"/>
      <point x="259" y="393"/>
      <point x="264" y="393"/>
      <point x="268" y="392" type="curve"/>
      <point x="195" y="243" type="line"/>
      <point x="195" y="256" type="line" smooth="yes"/>
      <point x="195" y="333"/>
      <point x="206" y="393"/>
    </contour>
    <contour>
      <point x="265" y="109" type="curve" smooth="yes"/>
      <point x="260" y="109"/>
      <point x="256" y="109"/>
      <point x="252" y="110" type="curve"/>
      <point x="325" y="259" type="line"/>
      <point x="325" y="246" type="line" smooth="yes"/>
      <point x="325" y="171"/>
      <point x="314" y="109"/>
    </contour>
  </outline>
</glyph>
<glyph name="ugrave" format="1">
  <advance width="557"/>
  <unicode hex="00F9"/>
  <outline>
    <contour>
      <point x="327" y="252" type="line" smooth="yes"/>
      <point x="327" y="165"/>
      <point x="288" y="111"/>
      <point x="251" y="111" type="curve" smooth="yes"/>
      <point x="220" y="111"/>
      <point x="211" y="142"/>
      <point x="211" y="189" type="curve" smooth="yes"/>
      <point x="211" y="502" type="line"/>
      <point x="52" y="502" type="line"/>
      <point x="52" y="168" type="line" smooth="yes"/>
      <point x="52" y="62"/>
      <point x="91" y="-6"/>
      <point x="196" y="-6" type="curve" smooth="yes"/>
      <point x="266" y="-6"/>
      <point x="331" y="22"/>
      <point x="366" y="84" type="curve"/>
      <point x="380" y="24"/>
      <point x="413" y="-8"/>
      <point x="413" y="-8" type="curve"/>
      <point x="540" y="32" type="line"/>
      <point x="540" y="32"/>
      <point x="485" y="83"/>
      <point x="485" y="241" type="curve" smooth="yes"/>
      <point x="485" y="502" type="line"/>
      <point x="327" y="502" type="line"/>
    </contour>
    <contour>
      <point x="345" y="628" type="line"/>
      <point x="162" y="842" type="line"/>
      <point x="58" y="743" type="line"/>
      <point x="142" y="639"/>
      <point x="267" y="565"/>
      <point x="278" y="557" type="curve"/>
    </contour>
  </outline>
</glyph>
<glyph name="uacute" format="1">
  <advance width="557"/>
  <unicode hex="00FA"/>
  <outline>
    <contour>
      <point x="327" y="252" type="line" smooth="yes"/>
      <point x="327" y="165"/>
      <point x="288" y="111"/>
      <point x="251" y="111" type="curve" smooth="yes"/>
      <point x="220" y="111"/>
      <point x="211" y="142"/>
      <point x="211" y="189" type="curve" smooth="yes"/>
      <point x="211" y="502" type="line"/>
      <point x="52" y="502" type="line"/>
      <point x="52" y="168" type="line" smooth="yes"/>
      <point x="52" y="62"/>
      <point x="91" y="-6"/>
      <point x="196" y="-6" type="curve" smooth="yes"/>
      <point x="266" y="-6"/>
      <point x="331" y="22"/>
      <point x="366" y="84" type="curve"/>
      <point x="380" y="24"/>
      <point x="413" y="-8"/>
      <point x="413" y="-8" type="curve"/>
      <point x="540" y="32" type="line"/>
      <point x="540" y="32"/>
      <point x="485" y="83"/>
      <point x="485" y="241" type="curve" smooth="yes"/>
      <point x="485" y="502" type="line"/>
      <point x="327" y="502" type="line"/>
    </contour>
    <contour>
      <point x="275" y="557" type="line"/>
      <point x="275" y="557"/>
      <point x="410" y="639"/>
      <point x="494" y="743" type="curve"/>
      <point x="390" y="842" type="line"/>
      <point x="208" y="628" type="line"/>
    </contour>
  </outline>
</glyph>
<glyph name="ucircumflex" format="1">
  <advance width="557"/>
  <unicode hex="00FB"/>
  <outline>
    <contour>
      <point x="327" y="252" type="line" smooth="yes"/>
      <point x="327" y="165"/>
      <point x="288" y="111"/>
      <point x="251" y="111" type="curve" smooth="yes"/>
      <point x="220" y="111"/>
      <point x="211" y="142"/>
      <point x="211" y="189" type="curve" smooth="yes"/>
      <point x="211" y="502" type="line"/>
      <point x="52" y="502" type="line"/>
      <point x="52" y="168" type="line" smooth="yes"/>
      <point x="52" y="62"/>
      <point x="91" y="-6"/>
      <point x="196" y="-6" type="curve" smooth="yes"/>
      <point x="266" y="-6"/>
      <point x="331" y="22"/>
      <point x="366" y="84" type="curve"/>
      <point x="380" y="24"/>
      <point x="413" y="-8"/>
      <point x="413" y="-8" type="curve"/>
      <point x="540" y="32" type="line"/>
      <point x="540" y="32"/>
      <point x="485" y="83"/>
      <point x="485" y="241" type="curve" smooth="yes"/>
      <point x="485" y="502" type="line"/>
      <point x="327" y="502" type="line"/>
    </contour>
    <contour>
      <point x="138" y="557" type="line"/>
      <point x="166" y="571"/>
      <point x="214" y="595"/>
      <point x="272" y="639" type="curve"/>
      <point x="330" y="595"/>
      <point x="379" y="570"/>
      <point x="405" y="557" type="curve"/>
      <point x="466" y="631" type="line"/>
      <point x="272" y="828" type="line"/>
      <point x="77" y="631" type="line"/>
    </contour>
  </outline>
</glyph>
<glyph name="udieresis" format="1">
  <advance width="557"/>
  <unicode hex="00FC"/>
  <outline>
    <contour>
      <point x="327" y="252" type="line" smooth="yes"/>
      <point x="327" y="165"/>
      <point x="288" y="111"/>
      <point x="251" y="111" type="curve" smooth="yes"/>
      <point x="220" y="111"/>
      <point x="211" y="142"/>
      <point x="211" y="189" type="curve" smooth="yes"/>
      <point x="211" y="502" type="line"/>
      <point x="52" y="502" type="line"/>
      <point x="52" y="168" type="line" smooth="yes"/>
      <point x="52" y="62"/>
      <point x="91" y="-6"/>
      <point x="196" y="-6" type="curve" smooth="yes"/>
      <point x="266" y="-6"/>
      <point x="331" y="22"/>
      <point x="366" y="84" type="curve"/>
      <point x="380" y="24"/>
      <point x="413" y="-8"/>
      <point x="413" y="-8" type="curve"/>
      <point x="540" y="32" type="line"/>
      <point x="540" y="32"/>
      <point x="485" y="83"/>
      <point x="485" y="241" type="curve" smooth="yes"/>
      <point x="485" y="502" type="line"/>
      <point x="327" y="502" type="line"/>
    </contour>
    <contour>
      <point x="243" y="667" type="curve" smooth="yes"/>
      <point x="243" y="707"/>
      <point x="217" y="741"/>
      <point x="171" y="741" type="curve" smooth="yes"/>
      <point x="121" y="741"/>
      <point x="96" y="707"/>
      <point x="96" y="663" type="curve" smooth="yes"/>
      <point x="96" y="623"/>
      <point x="121" y="590"/>
      <point x="168" y="590" type="curve" smooth="yes"/>
      <point x="217" y="590"/>
      <point x="243" y="623"/>
    </contour>
    <contour>
      <point x="458" y="667" type="curve" smooth="yes"/>
      <point x="458" y="707"/>
      <point x="432" y="741"/>
      <point x="386" y="741" type="curve" smooth="yes"/>
      <point x="336" y="741"/>
      <point x="311" y="707"/>
      <point x="311" y="663" type="curve" smooth="yes"/>
      <point x="311" y="623"/>
      <point x="336" y="590"/>
      <point x="383" y="590" type="curve" smooth="yes"/>
      <point x="432" y="590"/>
      <point x="458" y="623"/>
    </contour>
  </outline>
</glyph>
<glyph name="yacute" format="1">
  <advance width="547"/>
  <unicode hex="00FD"/>
  <outline>
    <contour>
      <point x="486" y="502" type="line"/>
      <point x="327" y="502" type="line"/>
      <point x="327" y="246" type="line" smooth="yes"/>
      <point x="327" y="164"/>
      <point x="286" y="111"/>
      <point x="251" y="111" type="curve" smooth="yes"/>
      <point x="220" y="111"/>
      <point x="211" y="143"/>
      <point x="211" y="189" type="curve" smooth="yes"/>
      <point x="211" y="502" type="line"/>
      <point x="52" y="502" type="line"/>
      <point x="52" y="168" type="line" smooth="yes"/>
      <point x="52" y="62"/>
      <point x="91" y="-6"/>
      <point x="196" y="-6" type="curve" smooth="yes"/>
      <point x="265" y="-6"/>
      <point x="329" y="20"/>
      <point x="364" y="79" type="curve"/>
      <point x="374" y="53"/>
      <point x="378" y="33"/>
      <point x="378" y="6" type="curve" smooth="yes"/>
      <point x="378" y="-51"/>
      <point x="342" y="-83"/>
      <point x="289" y="-83" type="curve" smooth="yes"/>
      <point x="240" y="-83"/>
      <point x="201" y="-71"/>
      <point x="142" y="-51" type="curve"/>
      <point x="105" y="-173" type="line"/>
      <point x="168" y="-199"/>
      <point x="238" y="-215"/>
      <point x="299" y="-215" type="curve" smooth="yes"/>
      <point x="434" y="-215"/>
      <point x="519" y="-136"/>
      <point x="519" y="3" type="curve" smooth="yes"/>
      <point x="519" y="89"/>
      <point x="481" y="146"/>
      <point x="482" y="231" type="curve" smooth="yes"/>
    </contour>
    <contour>
      <point x="274" y="557" type="line"/>
      <point x="274" y="557"/>
      <point x="409" y="639"/>
      <point x="493" y="743" type="curve"/>
      <point x="389" y="842" type="line"/>
      <point x="207" y="628" type="line"/>
    </contour>
  </outline>
</glyph>
<glyph name="thorn" format="1">
  <advance width="534"/>
  <unicode hex="00FE"/>
  <outline>
    <contour>
      <point x="215" y="725" type="line"/>
      <point x="57" y="698" type="line"/>
      <point x="57" y="-221" type="line"/>
      <point x="215" y="-194" type="line"/>
      <point x="215" y="0" type="line"/>
      <point x="231" y="-4"/>
      <point x="250" y="-6"/>
      <point x="267" y="-6" type="curve" smooth="yes"/>
      <point x="404" y="-6"/>
      <point x="507" y="110"/>
      <point x="507" y="259" type="curve" smooth="yes"/>
      <point x="507" y="410"/>
      <point x="445" y="509"/>
      <point x="326" y="509" type="curve" smooth="yes"/>
      <point x="278" y="509"/>
      <point x="241" y="491"/>
      <point x="215" y="457" type="curve"/>
    </contour>
    <contour>
      <point x="288" y="392" type="curve" smooth="yes"/>
      <point x="336" y="392"/>
      <point x="339" y="324"/>
      <point x="339" y="249" type="curve" smooth="yes"/>
      <point x="339" y="169"/>
      <point x="321" y="110"/>
      <point x="256" y="110" type="curve" smooth="yes"/>
      <point x="243" y="110"/>
      <point x="223" y="115"/>
      <point x="215" y="117" type="curve"/>
      <point x="215" y="252" type="line" smooth="yes"/>
      <point x="215" y="328"/>
      <point x="248" y="392"/>
    </contour>
  </outline>
</glyph>
<glyph name="ydieresis" format="1">
  <advance width="547"/>
  <unicode hex="00FF"/>
  <outline>
    <contour>
      <point x="486" y="502" type="line"/>
      <point x="327" y="502" type="line"/>
      <point x="327" y="246" type="line" smooth="yes"/>
      <point x="327" y="164"/>
      <point x="286" y="111"/>
      <point x="251" y="111" type="curve" smooth="yes"/>
      <point x="220" y="111"/>
      <point x="211" y="143"/>
      <point x="211" y="189" type="curve" smooth="yes"/>
      <point x="211" y="502" type="line"/>
      <point x="52" y="502" type="line"/>
      <point x="52" y="168" type="line" smooth="yes"/>
      <point x="52" y="62"/>
      <point x="91" y="-6"/>
      <point x="196" y="-6" type="curve" smooth="yes"/>
      <point x="265" y="-6"/>
      <point x="329" y="20"/>
      <point x="364" y="79" type="curve"/>
      <point x="374" y="53"/>
      <point x="378" y="33"/>
      <point x="378" y="6" type="curve" smooth="yes"/>
      <point x="378" y="-51"/>
      <point x="342" y="-83"/>
      <point x="289" y="-83" type="curve" smooth="yes"/>
      <point x="240" y="-83"/>
      <point x="201" y="-71"/>
      <point x="142" y="-51" type="curve"/>
      <point x="105" y="-173" type="line"/>
      <point x="168" y="-199"/>
      <point x="238" y="-215"/>
      <point x="299" y="-215" type="curve" smooth="yes"/>
      <point x="434" y="-215"/>
      <point x="519" y="-136"/>
      <point x="519" y="3" type="curve" smooth="yes"/>
      <point x="519" y="89"/>
      <point x="481" y="146"/>
      <point x="482" y="231" type="curve" smooth="yes"/>
    </contour>
    <contour>
      <point x="242" y="667" type="curve" smooth="yes"/>
      <point x="242" y="707"/>
      <point x="216" y="741"/>
      <point x="170" y="741" type="curve" smooth="yes"/>
      <point x="120" y="741"/>
      <point x="95" y="707"/>
      <point x="95" y="663" type="curve" smooth="yes"/>
      <point x="95" y="623"/>
      <point x="120" y="590"/>
      <point x="167" y="590" type="curve" smooth="yes"/>
      <point x="216" y="590"/>
      <point x="242" y="623"/>
    </contour>
    <contour>
      <point x="457" y="667" type="curve" smooth="yes"/>
      <point x="457" y="707"/>
      <point x="431" y="741"/>
      <point x="385" y="741" type="curve" smooth="yes"/>
      <point x="335" y="741"/>
      <point x="310" y="707"/>
      <point x="310" y="663" type="curve" smooth="yes"/>
      <point x="310" y="623"/>
      <point x="335" y="590"/>
      <point x="382" y="590" type="curve" smooth="yes"/>
      <point x="431" y="590"/>
      <point x="457" y="623"/>
    </contour>
  </outline>
</glyph>
<glyph name="dotlessi" format="1">
  <advance width="276"/>
  <unicode hex="0131"/>
  <outline>
    <contour>
      <point x="107" y="506" type="move" name="topdotlessi"/>
    </contour>
    <contour>
      <point x="169" y="-4" type="curve" smooth="yes"/>
      <point x="223" y="-4"/>
      <point x="266" y="18"/>
      <point x="268" y="20" type="curve"/>
      <point x="254" y="119" type="line"/>
      <point x="252" y="118"/>
      <point x="238" y="115"/>
      <point x="228" y="115" type="curve" smooth="yes"/>
      <point x="209" y="115"/>
      <point x="200" y="124"/>
      <point x="200" y="154" type="curve" smooth="yes"/>
      <point x="200" y="502" type="line"/>
      <point x="42" y="502" type="line"/>
      <point x="42" y="109" type="line" smooth="yes"/>
      <point x="42" y="38"/>
      <point x="94" y="-4"/>
    </contour>
  </outline>
</glyph>
<glyph name="OE" format="1">
  <advance width="883"/>
  <unicode hex="0152"/>
  <outline>
    <contour>
      <point x="443" y="0" type="curve"/>
      <point x="866" y="0" type="line"/>
      <point x="866" y="121" type="line"/>
      <point x="586" y="121" type="line"/>
      <point x="586" y="292" type="line"/>
      <point x="788" y="292" type="line"/>
      <point x="808" y="411" type="line"/>
      <point x="586" y="411" type="line"/>
      <point x="586" y="556" type="line"/>
      <point x="852" y="556" type="line"/>
      <point x="852" y="677" type="line"/>
      <point x="428" y="677" type="line"/>
      <point x="404" y="683"/>
      <point x="375" y="686"/>
      <point x="339" y="686" type="curve" smooth="yes"/>
      <point x="134" y="686"/>
      <point x="37" y="537"/>
      <point x="37" y="330" type="curve" smooth="yes"/>
      <point x="37" y="118"/>
      <point x="126" y="-6"/>
      <point x="336" y="-6" type="curve" smooth="yes"/>
      <point x="374" y="-6"/>
      <point x="410" y="-5"/>
    </contour>
    <contour>
      <point x="354" y="111" type="curve" smooth="yes"/>
      <point x="245" y="111"/>
      <point x="215" y="206"/>
      <point x="215" y="341" type="curve" smooth="yes"/>
      <point x="215" y="484"/>
      <point x="252" y="569"/>
      <point x="339" y="569" type="curve" smooth="yes"/>
      <point x="367" y="569"/>
      <point x="394" y="564"/>
      <point x="422" y="552" type="curve"/>
      <point x="422" y="115" type="line"/>
      <point x="398" y="112"/>
      <point x="375" y="111"/>
    </contour>
  </outline>
</glyph>
<glyph name="oe" format="1">
  <advance width="781"/>
  <unicode hex="0153"/>
  <outline>
    <contour>
      <point x="264" y="512" type="curve" smooth="yes"/>
      <point x="105" y="512"/>
      <point x="27" y="397"/>
      <point x="27" y="245" type="curve" smooth="yes"/>
      <point x="27" y="87"/>
      <point x="96" y="-10"/>
      <point x="256" y="-10" type="curve" smooth="yes"/>
      <point x="319" y="-10"/>
      <point x="368" y="11"/>
      <point x="404" y="44" type="curve"/>
      <point x="438" y="11"/>
      <point x="488" y="-9"/>
      <point x="557" y="-9" type="curve" smooth="yes"/>
      <point x="663" y="-9"/>
      <point x="754" y="36"/>
      <point x="754" y="36" type="curve"/>
      <point x="724" y="140" type="line"/>
      <point x="724" y="140"/>
      <point x="640" y="108"/>
      <point x="582" y="108" type="curve" smooth="yes"/>
      <point x="532" y="108"/>
      <point x="509" y="135"/>
      <point x="500" y="175" type="curve"/>
      <point x="659" y="188"/>
      <point x="758" y="264"/>
      <point x="758" y="361" type="curve" smooth="yes"/>
      <point x="758" y="447"/>
      <point x="708" y="512"/>
      <point x="583" y="512" type="curve" smooth="yes"/>
      <point x="519" y="512"/>
      <point x="463" y="491"/>
      <point x="421" y="452" type="curve"/>
      <point x="386" y="489"/>
      <point x="335" y="512"/>
    </contour>
    <contour>
      <point x="255" y="393" type="curve" smooth="yes"/>
      <point x="312" y="393"/>
      <point x="325" y="328"/>
      <point x="325" y="246" type="curve" smooth="yes"/>
      <point x="325" y="171"/>
      <point x="314" y="109"/>
      <point x="265" y="109" type="curve" smooth="yes"/>
      <point x="208" y="109"/>
      <point x="195" y="175"/>
      <point x="195" y="256" type="curve" smooth="yes"/>
      <point x="195" y="333"/>
      <point x="206" y="393"/>
    </contour>
    <contour>
      <point x="563" y="399" type="curve" smooth="yes"/>
      <point x="585" y="399"/>
      <point x="601" y="382"/>
      <point x="601" y="357" type="curve" smooth="yes"/>
      <point x="601" y="325"/>
      <point x="571" y="278"/>
      <point x="492" y="276" type="curve"/>
      <point x="494" y="333"/>
      <point x="512" y="399"/>
    </contour>
  </outline>
</glyph>
<glyph name="Ydieresis" format="1">
  <advance width="574"/>
  <unicode hex="0178"/>
  <outline>
    <contour>
      <point x="201" y="0" type="line"/>
      <point x="365" y="0" type="line"/>
      <point x="365" y="251" type="line"/>
      <point x="581" y="677" type="line"/>
      <point x="409" y="677" type="line"/>
      <point x="286" y="418" type="line"/>
      <point x="166" y="677" type="line"/>
      <point x="-8" y="677" type="line"/>
      <point x="201" y="260" type="line"/>
    </contour>
    <contour>
      <point x="249" y="822" type="curve" smooth="yes"/>
      <point x="249" y="862"/>
      <point x="223" y="896"/>
      <point x="177" y="896" type="curve" smooth="yes"/>
      <point x="127" y="896"/>
      <point x="102" y="862"/>
      <point x="102" y="818" type="curve" smooth="yes"/>
      <point x="102" y="778"/>
      <point x="127" y="745"/>
      <point x="174" y="745" type="curve" smooth="yes"/>
      <point x="223" y="745"/>
      <point x="249" y="778"/>
    </contour>
    <contour>
      <point x="464" y="822" type="curve" smooth="yes"/>
      <point x="464" y="862"/>
      <point x="438" y="896"/>
      <point x="392" y="896" type="curve" smooth="yes"/>
      <point x="342" y="896"/>
      <point x="317" y="862"/>
      <point x="317" y="818" type="curve" smooth="yes"/>
      <point x="317" y="778"/>
      <point x="342" y="745"/>
      <point x="389" y="745" type="curve" smooth="yes"/>
      <point x="438" y="745"/>
      <point x="464" y="778"/>
    </contour>
  </outline>
</glyph>
<glyph name="ring" format="1">
  <advance width="492"/>
  <unicode hex="02DA"/>
  <outline>
    <contour>
      <point x="137" y="732" type="curve" smooth="yes"/>
      <point x="137" y="670"/>
      <point x="178" y="622"/>
      <point x="244" y="622" type="curve" smooth="yes"/>
      <point x="308" y="622"/>
      <point x="354" y="666"/>
      <point x="354" y="732" type="curve" smooth="yes"/>
      <point x="354" y="795"/>
      <point x="313" y="842"/>
      <point x="247" y="842" type="curve" smooth="yes"/>
      <point x="184" y="842"/>
      <point x="137" y="799"/>
    </contour>
    <contour>
      <point x="211" y="733" type="curve" smooth="yes"/>
      <point x="211" y="759"/>
      <point x="224" y="773"/>
      <point x="245" y="773" type="curve" smooth="yes"/>
      <point x="267" y="773"/>
      <point x="280" y="757"/>
      <point x="280" y="732" type="curve" smooth="yes"/>
      <point x="280" y="704"/>
      <point x="267" y="690"/>
      <point x="245" y="690" type="curve" smooth="yes"/>
      <point x="227" y="690"/>
      <point x="211" y="704"/>
    </contour>
  </outline>
</glyph>
<glyph name="emdash" format="1">
  <advance width="698"/>
  <unicode hex="2014"/>
  <outline>
    <contour>
      <point x="0" y="261" type="line"/>
      <point x="698" y="261" type="line"/>
      <point x="698" y="372" type="line"/>
      <point x="0" y="372" type="line"/>
    </contour>
  </outline>
</glyph>
<glyph name="quoteleft" format="1">
  <advance width="249"/>
  <unicode hex="2018"/>
  <outline>
    <contour>
      <point x="200" y="430" type="curve"/>
      <point x="198" y="452"/>
      <point x="181" y="489"/>
      <point x="181" y="530" type="curve" smooth="yes"/>
      <point x="181" y="567"/>
      <point x="194" y="608"/>
      <point x="241" y="643" type="curve"/>
      <point x="184" y="722" type="line"/>
      <point x="75" y="667"/>
      <point x="27" y="582"/>
      <point x="27" y="497" type="curve" smooth="yes"/>
      <point x="27" y="448"/>
      <point x="48" y="406"/>
      <point x="111" y="406" type="curve" smooth="yes"/>
      <point x="173" y="406"/>
      <point x="199" y="428"/>
    </contour>
  </outline>
</glyph>
<glyph name="quoteright" format="1">
  <advance width="253"/>
  <unicode hex="2019"/>
  <outline>
    <contour>
      <point x="63" y="698" type="curve"/>
      <point x="66" y="676"/>
      <point x="83" y="639"/>
      <point x="83" y="598" type="curve" smooth="yes"/>
      <point x="83" y="561"/>
      <point x="70" y="521"/>
      <point x="22" y="486" type="curve"/>
      <point x="80" y="406" type="line"/>
      <point x="189" y="461"/>
      <point x="236" y="546"/>
      <point x="236" y="632" type="curve" smooth="yes"/>
      <point x="236" y="680"/>
      <point x="215" y="722"/>
      <point x="153" y="722" type="curve" smooth="yes"/>
      <point x="91" y="722"/>
      <point x="65" y="700"/>
    </contour>
  </outline>
</glyph>
<glyph name="quotesinglbase" format="1">
  <advance width="249"/>
  <unicode hex="201A"/>
  <outline>
    <contour>
      <point x="63" y="117" type="curve"/>
      <point x="66" y="95"/>
      <point x="83" y="58"/>
      <point x="83" y="17" type="curve" smooth="yes"/>
      <point x="83" y="-20"/>
      <point x="70" y="-61"/>
      <point x="22" y="-96" type="curve"/>
      <point x="80" y="-175" type="line"/>
      <point x="189" y="-120"/>
      <point x="236" y="-35"/>
      <point x="236" y="50" type="curve" smooth="yes"/>
      <point x="236" y="99"/>
      <point x="215" y="141"/>
      <point x="153" y="141" type="curve" smooth="yes"/>
      <point x="91" y="141"/>
      <point x="65" y="119"/>
    </contour>
  </outline>
</glyph>
<glyph name="quotedblleft" format="1">
  <advance width="464"/>
  <unicode hex="201C"/>
  <outline>
    <contour>
      <point x="200" y="430" type="curve"/>
      <point x="198" y="452"/>
      <point x="181" y="489"/>
      <point x="181" y="530" type="curve" smooth="yes"/>
      <point x="181" y="567"/>
      <point x="194" y="608"/>
      <point x="241" y="643" type="curve"/>
      <point x="184" y="722" type="line"/>
      <point x="75" y="667"/>
      <point x="27" y="582"/>
      <point x="27" y="497" type="curve" smooth="yes"/>
      <point x="27" y="448"/>
      <point x="48" y="406"/>
      <point x="111" y="406" type="curve" smooth="yes"/>
      <point x="173" y="406"/>
      <point x="199" y="428"/>
    </contour>
    <contour>
      <point x="415" y="430" type="curve"/>
      <point x="413" y="452"/>
      <point x="396" y="489"/>
      <point x="396" y="530" type="curve" smooth="yes"/>
      <point x="396" y="567"/>
      <point x="409" y="608"/>
      <point x="456" y="643" type="curve"/>
      <point x="399" y="722" type="line"/>
      <point x="290" y="667"/>
      <point x="242" y="582"/>
      <point x="242" y="497" type="curve" smooth="yes"/>
      <point x="242" y="448"/>
      <point x="263" y="406"/>
      <point x="326" y="406" type="curve" smooth="yes"/>
      <point x="388" y="406"/>
      <point x="414" y="428"/>
    </contour>
  </outline>
</glyph>
<glyph name="quotedblright" format="1">
  <advance width="464"/>
  <unicode hex="201D"/>
  <outline>
    <contour>
      <point x="63" y="699" type="curve"/>
      <point x="66" y="677"/>
      <point x="83" y="640"/>
      <point x="83" y="599" type="curve" smooth="yes"/>
      <point x="83" y="562"/>
      <point x="70" y="521"/>
      <point x="22" y="486" type="curve"/>
      <point x="80" y="407" type="line"/>
      <point x="189" y="462"/>
      <point x="236" y="547"/>
      <point x="236" y="632" type="curve" smooth="yes"/>
      <point x="236" y="681"/>
      <point x="215" y="723"/>
      <point x="153" y="723" type="curve" smooth="yes"/>
      <point x="91" y="723"/>
      <point x="65" y="701"/>
    </contour>
    <contour>
      <point x="278" y="699" type="curve"/>
      <point x="281" y="677"/>
      <point x="298" y="640"/>
      <point x="298" y="599" type="curve" smooth="yes"/>
      <point x="298" y="562"/>
      <point x="285" y="521"/>
      <point x="237" y="486" type="curve"/>
      <point x="295" y="407" type="line"/>
      <point x="404" y="462"/>
      <point x="451" y="547"/>
      <point x="451" y="632" type="curve" smooth="yes"/>
      <point x="451" y="681"/>
      <point x="430" y="723"/>
      <point x="368" y="723" type="curve" smooth="yes"/>
      <point x="306" y="723"/>
      <point x="280" y="701"/>
    </contour>
  </outline>
</glyph>
<glyph name="quotedblbase" format="1">
  <advance width="464"/>
  <unicode hex="201E"/>
  <outline>
    <contour>
      <point x="63" y="117" type="curve"/>
      <point x="66" y="95"/>
      <point x="83" y="58"/>
      <point x="83" y="17" type="curve" smooth="yes"/>
      <point x="83" y="-20"/>
      <point x="70" y="-61"/>
      <point x="22" y="-96" type="curve"/>
      <point x="80" y="-175" type="line"/>
      <point x="189" y="-120"/>
      <point x="236" y="-35"/>
      <point x="236" y="50" type="curve" smooth="yes"/>
      <point x="236" y="99"/>
      <point x="215" y="141"/>
      <point x="153" y="141" type="curve" smooth="yes"/>
      <point x="91" y="141"/>
      <point x="65" y="119"/>
    </contour>
    <contour>
      <point x="278" y="117" type="curve"/>
      <point x="281" y="95"/>
      <point x="298" y="58"/>
      <point x="298" y="17" type="curve" smooth="yes"/>
      <point x="298" y="-20"/>
      <point x="285" y="-61"/>
      <point x="237" y="-96" type="curve"/>
      <point x="295" y="-175" type="line"/>
      <point x="404" y="-120"/>
      <point x="451" y="-35"/>
      <point x="451" y="50" type="curve" smooth="yes"/>
      <point x="451" y="99"/>
      <point x="430" y="141"/>
      <point x="368" y="141" type="curve" smooth="yes"/>
      <point x="306" y="141"/>
      <point x="280" y="119"/>
    </contour>
  </outline>
</glyph>
<glyph name="bullet" format="1">
  <advance width="299"/>
  <unicode hex="2022"/>
  <outline>
    <contour>
      <point x="42" y="316" type="curve" smooth="yes"/>
      <point x="42" y="251"/>
      <point x="84" y="209"/>
      <point x="149" y="209" type="curve" smooth="yes"/>
      <point x="214" y="209"/>
      <point x="256" y="251"/>
      <point x="256" y="316" type="curve" smooth="yes"/>
      <point x="256" y="381"/>
      <point x="214" y="423"/>
      <point x="149" y="423" type="curve" smooth="yes"/>
      <point x="84" y="423"/>
      <point x="42" y="381"/>
    </contour>
  </outline>
</glyph>
<glyph name="guilsinglleft" format="1">
  <advance width="365"/>
  <unicode hex="2039"/>
  <outline>
    <contour>
      <point x="272" y="482" type="line"/>
      <point x="272" y="482"/>
      <point x="124" y="356"/>
      <point x="42" y="245" type="curve"/>
      <point x="124" y="133"/>
      <point x="272" y="7"/>
      <point x="272" y="7" type="curve"/>
      <point x="338" y="82" type="line"/>
      <point x="208" y="245" type="line"/>
      <point x="338" y="408" type="line"/>
    </contour>
  </outline>
</glyph>
<glyph name="fraction" format="1">
  <advance width="351"/>
  <unicode hex="2044"/>
  <outline>
    <contour>
      <point x="-31" y="-8" type="line"/>
      <point x="101" y="-8" type="line"/>
      <point x="383" y="594" type="line"/>
      <point x="250" y="594" type="line"/>
    </contour>
  </outline>
</glyph>
<glyph name="uni2074" format="1">
  <advance width="355"/>
  <unicode hex="2074"/>
  <outline>
    <contour>
      <point x="290" y="594" type="line"/>
      <point x="184" y="574" type="line"/>
      <point x="184" y="482" type="line"/>
      <point x="135" y="482" type="line"/>
      <point x="207" y="684" type="line"/>
      <point x="99" y="684" type="line"/>
      <point x="20" y="459" type="line"/>
      <point x="20" y="396" type="line"/>
      <point x="184" y="396" type="line"/>
      <point x="184" y="328" type="line"/>
      <point x="290" y="328" type="line"/>
      <point x="290" y="396" type="line"/>
      <point x="333" y="396" type="line"/>
      <point x="343" y="482" type="line"/>
      <point x="290" y="482" type="line"/>
    </contour>
  </outline>
</glyph>
